<?xml version="1.0" encoding="UTF-8"?>
<svg version="1.1" xmlns="http://www.w3.org/2000/svg" width="500" height="500">
<path d="M0 0 C22.44 0 44.88 0 68 0 C69.37561436 2.75122872 69.140572 4.96842601 69.15821838 8.04898071 C69.17290161 9.98415306 69.17290161 9.98415306 69.18788147 11.9584198 C69.19378606 13.39627038 69.19959648 14.83412135 69.20532227 16.27197266 C69.21489805 17.77964041 69.22490795 19.28730545 69.23532104 20.79496765 C69.26240873 24.89594085 69.28339733 28.9969256 69.30332303 33.09793901 C69.3251588 37.38077442 69.35255925 41.66357405 69.37937927 45.94638062 C69.4293388 54.06009257 69.47426551 62.17382434 69.51740164 70.28757513 C69.56674618 79.52326139 69.62167461 88.75891177 69.67708123 97.99456334 C69.79095132 116.99634226 69.89777938 135.99815502 70 155 C70.60835693 154.32090576 71.21671387 153.64181152 71.84350586 152.94213867 C72.64667236 152.0472876 73.44983887 151.15243652 74.27734375 150.23046875 C75.07132568 149.34512451 75.86530762 148.45978027 76.68334961 147.54760742 C80.7882693 143.03345029 85.01929972 138.8035883 89.6875 134.875 C94.6233987 130.6345704 98.90283653 125.80154763 103.265625 120.98828125 C107.8921576 115.9166443 107.8921576 115.9166443 110 114 C110.66 114 111.32 114 112 114 C112.33 113.01 112.66 112.02 113 111 C114.38677979 109.6394043 114.38677979 109.6394043 116.24316406 108.13671875 C121.92259529 103.31299731 127.06250383 97.98432497 132.27974701 92.67315674 C134.78443307 90.12599359 137.2988133 87.58848957 139.81258011 85.05029297 C144.47808395 80.33919842 149.13939888 75.624122 153.78466797 70.89306641 C157.03157986 67.58693786 160.29042506 64.29300352 163.55762482 61.00692749 C164.79814921 59.75464012 166.03411936 58.49782445 167.26543427 57.23648071 C168.97914841 55.48197823 170.70761337 53.74342128 172.44042969 52.0078125 C172.94647232 51.48222244 173.45251495 50.95663239 173.97389221 50.41511536 C177.4069717 47.02138871 177.4069717 47.02138871 180.05992126 46.92570496 C182.64896823 48.35935828 184.49433791 50.09676481 186.60083008 52.1809082 C187.50468948 53.06885574 188.40854889 53.95680328 189.33979797 54.87165833 C190.31690727 55.8475007 191.29347229 56.82388831 192.26953125 57.80078125 C193.27482722 58.79897663 194.2804213 59.79687186 195.28630066 60.79447937 C197.39034391 62.88508395 199.48836204 64.98152542 201.58276367 67.08178711 C204.27073601 69.77566797 206.97654078 72.45081815 209.6875658 75.12147236 C211.76793562 77.17603296 213.83676734 79.24191306 215.90244102 81.31123924 C216.89568783 82.30278976 217.89293683 83.29034764 218.89417458 84.27382851 C220.29000236 85.64759596 221.66853706 87.03886825 223.04614258 88.4309082 C223.83571854 89.21842972 224.62529449 90.00595123 225.438797 90.81733704 C227 93 227 93 226.7611208 94.95074368 C225.44103104 98.50497882 222.50744025 100.87098843 219.84716797 103.47753906 C219.20477676 104.11876205 218.56238556 104.75998505 217.90052795 105.42063904 C215.77129346 107.54267648 213.63173869 109.65399413 211.4921875 111.765625 C210.00750345 113.24216981 208.52355575 114.71945537 207.04031372 116.19744873 C203.1268405 120.09378277 199.20490154 123.98147838 195.28070068 127.86700439 C189.01904114 134.0695662 182.76981238 140.28464337 176.52139664 146.50054169 C174.34456602 148.66350061 172.16390854 150.82254039 169.9826355 152.98101807 C168.63140091 154.32221649 167.28025115 155.66350038 165.92919922 157.00488281 C165.32943771 157.59633591 164.72967621 158.187789 164.11174011 158.79716492 C160.44534777 162.44457663 156.99051773 166.22239117 153.6233387 170.1480217 C149.837697 174.46685318 145.73675397 178.40332188 141.37109375 182.12890625 C136.53887252 186.33822614 132.01880312 190.83411804 127.5 195.375 C126.67757813 196.19355469 125.85515625 197.01210937 125.0078125 197.85546875 C124.23179687 198.63277344 123.45578125 199.41007813 122.65625 200.2109375 C121.60147461 201.26740479 121.60147461 201.26740479 120.52539062 202.34521484 C118.88703745 203.74744743 118.88703745 203.74744743 119 205 C195.725 205.495 195.725 205.495 274 206 C274 228.44 274 250.88 274 274 C272.19872747 275.80127253 269.46263695 275.14440418 267.03330994 275.15821838 C265.73615555 275.1680072 264.43900116 275.17779602 263.10253906 275.18788147 C261.6516117 275.19378644 260.20068394 275.19959684 258.74975586 275.20532227 C257.23238352 275.2148953 255.71501388 275.22490503 254.19764709 275.23532104 C250.0656239 275.26243851 245.93358919 275.2834109 241.80152583 275.30332303 C237.48798811 275.32514054 233.17448611 275.35254988 228.86097717 275.37937927 C220.68702474 275.42936361 212.51305253 275.47428106 204.33906132 275.51740164 C195.03568494 275.56672505 185.73234439 275.62166128 176.42900264 275.67708123 C157.28603501 275.79098937 138.14303359 275.89780908 119 276 C119.55752488 276.55291592 120.11504976 277.10583183 120.68946934 277.67550278 C134.2393168 291.11504451 147.77538888 304.56831678 161.29616642 318.03710556 C167.83498713 324.5501182 174.37842889 331.05835957 180.93286133 337.55566406 C186.64408784 343.21713547 192.34654226 348.88727021 198.03852934 354.56808686 C201.05417623 357.57720166 204.07410472 360.58172361 207.10457039 363.5759201 C209.95445834 366.39197345 212.79250536 369.21942708 215.62175179 372.05621338 C216.66434227 373.0974237 217.71125306 374.13432783 218.76266098 375.16663361 C220.19326657 376.57250288 221.60722716 377.99525145 223.02015686 379.41888428 C223.81750779 380.21162624 224.61485872 381.00436821 225.4363718 381.82113266 C227 384 227 384 226.86540222 386.14710999 C225.60099477 388.85429963 223.78243986 390.57545474 221.66381836 392.67675781 C220.7429393 393.59741028 219.82206024 394.51806274 218.87327576 395.46661377 C217.86229096 396.46227919 216.8511431 397.45777907 215.83984375 398.453125 C214.80928859 399.47808326 213.77939506 400.50370714 212.75013733 401.52996826 C210.04249408 404.22617017 207.32596228 406.91324072 204.60748291 409.59851074 C201.83381027 412.34146729 199.06863571 415.09296124 196.30273438 417.84375 C190.87677256 423.2375602 185.44139257 428.62175234 180 434 C173.90431365 428.9550944 168.3307952 423.46624706 162.75024414 417.86376953 C161.73466124 416.84790408 160.71885714 415.83225973 159.70285034 414.81681824 C156.96350601 412.0777592 154.22724204 409.33564198 151.49154592 406.59293985 C148.62527073 403.72038635 145.75613737 400.85069044 142.88731384 397.98068237 C137.46335177 392.55362014 132.04194248 387.12401527 126.62145942 381.69347847 C120.44685871 375.50767567 114.26939661 369.32473376 108.09169972 363.14202332 C95.39129364 350.43118265 82.6944619 337.71677706 70 325 C69.99668985 325.76845088 69.99337971 326.53690176 69.98996925 327.32863903 C69.90876136 346.02370922 69.81667614 364.71869682 69.71247292 383.41365337 C69.66234361 392.45438125 69.6159007 401.49510004 69.578125 410.53588867 C69.54519172 418.41551324 69.50535308 426.29506739 69.45720994 434.17461425 C69.43195825 438.34706018 69.41017303 442.51945947 69.39665604 446.69196129 C69.38382362 450.61947195 69.36175648 454.54682259 69.33261681 458.47424507 C69.32355026 459.91536606 69.31785294 461.3565128 69.31578636 462.79766083 C69.31245749 464.76652614 69.29579255 466.73535539 69.2784729 468.70414734 C69.27294214 469.80568995 69.26741138 470.90723257 69.26171303 472.04215527 C68.99461498 475.06086078 68.2748844 477.26687545 67 480 C58.4119428 480.02312635 49.82389851 480.04091658 41.23581791 480.05181217 C37.248428 480.05704036 33.26105933 480.06413684 29.27368164 480.07543945 C25.42874886 480.08627061 21.58383655 480.09227732 17.73888969 480.09487724 C16.26881017 480.09673108 14.79873182 480.10035091 13.32866096 480.10573006 C11.27645533 480.11294355 9.22433533 480.11399081 7.17211914 480.11352539 C6.00185684 480.115746 4.83159454 480.11796661 3.62586975 480.12025452 C1 480 1 480 0 479 C-0.39477633 474.73916481 -0.43333434 470.44854511 -0.5546875 466.171875 C-0.57562344 465.47063255 -0.59655937 464.76939011 -0.61812973 464.04689789 C-1.28998401 440.78124406 -1.15060281 417.49745654 -1.13037109 394.22460938 C-1.12517154 388.18179407 -1.1267575 382.13901991 -1.1321975 376.09620595 C-1.13727954 370.21164373 -1.13674844 364.32709187 -1.13381577 358.44252777 C-1.13315041 355.96259303 -1.1339612 353.48265743 -1.13629532 351.00272369 C-1.1388287 347.56591994 -1.13497526 344.12918167 -1.12939453 340.69238281 C-1.13141876 339.67751801 -1.13344299 338.6626532 -1.13552856 337.61703491 C-1.13270874 336.68181 -1.12988892 335.74658508 -1.12698364 334.78302002 C-1.1264181 333.57108915 -1.1264181 333.57108915 -1.12584114 332.33467484 C-0.98991484 329.81289451 -0.55037199 327.46188226 0 325 C-5.75574693 329.89961973 -11.17627827 335.04633486 -16.49560547 340.41381836 C-17.30310745 341.2243869 -18.11060944 342.03495544 -18.94258118 342.87008667 C-20.68147421 344.61609068 -22.41923756 346.36322037 -24.15597153 348.11137199 C-26.90161566 350.87449103 -29.65086279 353.63397776 -32.40115356 356.39247131 C-40.21524958 364.23060984 -48.02325038 372.07480428 -55.82714844 379.9230957 C-60.61056253 384.73363343 -65.39919473 389.53893217 -70.19064713 394.34146309 C-72.01626951 396.17331095 -73.83999008 398.00705614 -75.66180038 399.84269524 C-78.19697069 402.39695747 -80.73812645 404.94511526 -83.28076172 407.49194336 C-84.03711411 408.25705734 -84.79346649 409.02217133 -85.57273865 409.81047058 C-86.26230148 410.49872925 -86.95186432 411.18698792 -87.662323 411.89610291 C-88.2621594 412.49908172 -88.86199581 413.10206053 -89.48000908 413.72331142 C-91 415 -91 415 -93 415 C-93 415.66 -93 416.32 -93 417 C-93.66 417 -94.32 417 -95 417 C-95 417.66 -95 418.32 -95 419 C-95.66 419 -96.32 419 -97 419 C-97.2475 419.61875 -97.495 420.2375 -97.75 420.875 C-99.20628639 423.35068687 -100.37812506 423.95125002 -103 425 C-103 425.66 -103 426.32 -103 427 C-104.75 428.7265625 -104.75 428.7265625 -107 430.625 C-107.7425 431.25664062 -108.485 431.88828125 -109.25 432.5390625 C-110.11625 433.26222656 -110.11625 433.26222656 -111 434 C-116.96118297 429.06002739 -122.41486302 423.71470138 -127.87109375 418.2265625 C-128.793423 417.3028183 -129.71575226 416.3790741 -130.66603088 415.42733765 C-133.09633814 412.99324569 -135.52362496 410.55616403 -137.95025635 408.1184082 C-140.43569364 405.6226689 -142.92402932 403.12982292 -145.41210938 400.63671875 C-150.27755096 395.7606114 -155.13980198 390.88133369 -160 386 C-154.9550944 379.90431365 -149.46624706 374.3307952 -143.86376953 368.75024414 C-142.84790408 367.73466124 -141.83225973 366.71885714 -140.81681824 365.70285034 C-138.0777592 362.96350601 -135.33564198 360.22724204 -132.59293985 357.49154592 C-129.72038635 354.62527073 -126.85069044 351.75613737 -123.98068237 348.88731384 C-118.55362014 343.46335177 -113.12401527 338.04194248 -107.69347847 332.62145942 C-101.50767567 326.44685871 -95.32473376 320.26939661 -89.14202332 314.09169972 C-76.43118265 301.39129364 -63.71677706 288.6944619 -51 276 C-51.79275298 275.99576806 -52.58550596 275.99153612 -53.40228176 275.98717594 C-72.66339152 275.88401436 -91.92446339 275.77539866 -111.18550777 275.66066074 C-120.4998796 275.60530757 -129.81425525 275.5518222 -139.12866211 275.50268555 C-147.24407766 275.4598693 -155.35946476 275.41359788 -163.47483641 275.36312145 C-167.77458118 275.33649982 -172.07432023 275.31164632 -176.37409782 275.29092598 C-180.41645607 275.27139165 -184.45876007 275.24725769 -188.50107002 275.21950912 C-189.98903039 275.21012165 -191.47700268 275.20245252 -192.96498108 275.19658089 C-194.98778103 275.18834851 -197.01055083 275.17348289 -199.03330994 275.15821838 C-200.73540068 275.14853956 -200.73540068 275.14853956 -202.4718771 275.1386652 C-205 275 -205 275 -206 274 C-206 251.56 -206 229.12 -206 206 C-154.85 205.67 -103.7 205.34 -51 205 C-54.51801876 200.89564478 -57.84326865 197.03184537 -61.63180542 193.24794006 C-62.50671127 192.37165955 -63.38161713 191.49537903 -64.28303528 190.59254456 C-65.23405344 189.64506401 -66.1851201 188.69763214 -67.13623047 187.75024414 C-68.15209592 186.73466124 -69.16774027 185.71885714 -70.18318176 184.70285034 C-72.9222408 181.96350601 -75.66435802 179.22724204 -78.40706015 176.49154592 C-81.27961365 173.62527073 -84.14930956 170.75613737 -87.01931763 167.88731384 C-92.44637986 162.46335177 -97.87598473 157.04194248 -103.30652153 151.62145942 C-109.49232433 145.44685871 -115.67526624 139.26939661 -121.85797668 133.09169972 C-134.56881735 120.39129364 -147.28322294 107.6944619 -160 95 C-156.6446902 91.0307563 -153.26230471 87.13609184 -149.61865234 83.42578125 C-148.81116547 82.60223145 -148.00367859 81.77868164 -147.17172241 80.93017578 C-143.53548764 77.24909478 -139.89733055 73.5699906 -136.25 69.89990234 C-134.32268582 67.95914312 -132.40294532 66.01132459 -130.48925781 64.05712891 C-127.72302833 61.23238846 -124.93670444 58.42799865 -122.1484375 55.625 C-121.29108002 54.74497314 -120.43372253 53.86494629 -119.55038452 52.95825195 C-118.74920197 52.15991943 -117.94801941 51.36158691 -117.12255859 50.5390625 C-116.42117767 49.82959473 -115.71979675 49.12012695 -114.99716187 48.38916016 C-113 47 -113 47 -111.15591049 47.15457153 C-108.26912934 48.28660692 -106.6953367 49.93916547 -104.50827026 52.13769531 C-103.6137616 53.02952515 -102.71925293 53.92135498 -101.79763794 54.84020996 C-100.81401226 55.83604763 -99.83052697 56.83202399 -98.84716797 57.828125 C-97.80615353 58.87162276 -96.76447001 59.9144534 -95.72216797 60.95666504 C-92.89339071 63.78885538 -90.07389048 66.63012408 -87.25580359 69.47294617 C-84.30755208 72.44366167 -81.35041569 75.4055039 -78.39407349 78.36816406 C-72.79504887 83.98168117 -67.20329121 89.60237572 -61.61445248 95.22603226 C-51.59967999 105.30272605 -41.57269268 115.36725879 -31.5429889 125.42908859 C-28.02143335 128.96249861 -24.50308023 132.49905896 -20.98733878 136.03825378 C-18.8035533 138.23583749 -16.61780057 140.43145696 -14.43159485 142.62663269 C-13.41562476 143.64768439 -12.40053342 144.66961131 -11.38637161 145.69245911 C-10.00578841 147.08467877 -8.62186895 148.47358774 -7.23776245 149.86230469 C-6.46312086 150.64176453 -5.68847927 151.42122437 -4.89036369 152.2243042 C-3.11499275 154.06184302 -3.11499275 154.06184302 -1 155 C-0.67 103.85 -0.34 52.7 0 0 Z " fill="#D8D8D8" transform="translate(216,10)"/>
<path d="M0 0 C5.66129431 4.69766975 10.85228904 9.74723372 16 15 C12.38193547 15 11.79438432 14.13688213 9 12 C8.113125 11.71125 7.22625 11.4225 6.3125 11.125 C5.549375 10.75375 4.78625 10.3825 4 10 C3.375 7.5625 3.375 7.5625 3 5 C1.50014391 3.33289654 1.50014391 3.33289654 0 2 C0 1.34 0 0.68 0 0 Z " fill="#D0D0D0" transform="translate(406,67)"/>
<path d="M0 0 C2.44938741 1.09552679 3.58013429 2.36969911 5.25 4.45703125 C5.77078125 5.09769531 6.2915625 5.73835938 6.828125 6.3984375 C7.21484375 6.89214844 7.6015625 7.38585937 8 7.89453125 C7.401875 7.58515625 6.80375 7.27578125 6.1875 6.95703125 C2.67704241 5.25195185 -0.11481895 4.42072868 -4 4.89453125 C-6.31377147 6.79037234 -6.31377147 6.79037234 -8 8.89453125 C-8 5.41329994 -7.58848696 5.02932489 -5.25 2.64453125 C-4.73953125 2.103125 -4.2290625 1.56171875 -3.703125 1.00390625 C-2 -0.10546875 -2 -0.10546875 0 0 Z " fill="#D2D2D2" transform="translate(396,57.10546875)"/>
<path d="M0 0 C4.91935902 4.11619836 9.52647956 8.40410362 14 13 C10.83214131 13 9.71896141 12.44444825 7 11 C6.01 10.67 5.02 10.34 4 10 C3.896875 9.236875 3.79375 8.47375 3.6875 7.6875 C2.94399108 4.78105605 2.15141968 3.96433971 0 2 C0 1.34 0 0.68 0 0 Z " fill="#D1D1D1" transform="translate(422,83)"/>
<path d="M0 0 C0.66 0.33 1.32 0.66 2 1 C-1 4 -4 7 -7 10 C-7.66 9.67 -8.32 9.34 -9 9 C-6.03 6.03 -3.06 3.06 0 0 Z " fill="#D2D2D2" transform="translate(165,286)"/>
</svg>
