<?xml version="1.0" encoding="UTF-8"?>
<svg version="1.1" xmlns="http://www.w3.org/2000/svg" width="500" height="500">
<path d="M0 0 C1.90625 2.2890625 1.90625 2.2890625 1.90625 6.2890625 C0.296875 8.46484375 0.296875 8.46484375 -1.84375 10.6015625 C-2.88789063 11.67857422 -2.88789063 11.67857422 -3.953125 12.77734375 C-6.09375 14.2890625 -6.09375 14.2890625 -8.13671875 14.20703125 C-10.35608343 13.16601189 -11.86334424 11.95762804 -13.65625 10.2890625 C-15.94262208 8.17073113 -17.06128059 7.29988564 -20.09375 6.2890625 C-17.81969776 10.71083075 -15.18373661 13.45753331 -11.09375 16.2890625 C-5.24881495 17.42637745 0.65210365 17.57004095 6.58984375 17.71875 C15.69404918 18.11386922 21.57366134 22.03907282 27.90625 28.2890625 C32.53390484 33.51000642 33.38505768 37.57298673 33.3125 44.4296875 C32.53919129 49.8725911 29.42100413 53.35377073 25.16015625 56.6328125 C21.53073166 58.89615077 18.16750351 60.20383743 13.90625 60.2890625 C10.82297268 59.48781609 7.86936025 58.45455253 4.90625 57.2890625 C5.23625 57.9078125 5.56625 58.5265625 5.90625 59.1640625 C7.48958132 64.11197287 7.89246374 69.27727204 6.25390625 74.28125 C3.44399921 79.70810909 -1.27937726 84.35093825 -7.09375 86.2890625 C-9.29296875 86.5625 -9.29296875 86.5625 -11.78125 86.6640625 C-12.58949219 86.71304688 -13.39773438 86.76203125 -14.23046875 86.8125 C-21.72448711 85.44251574 -27.24003036 79.52162969 -32.296875 74.203125 C-33.61955561 72.8474259 -34.94247917 71.49196381 -36.265625 70.13671875 C-38.31952763 68.01412207 -40.36914132 65.88759923 -42.4140625 63.75634766 C-44.40601699 61.68628659 -46.4128521 59.63160425 -48.421875 57.578125 C-49.0323468 56.93243561 -49.6428186 56.28674622 -50.27178955 55.62149048 C-50.84628845 55.03693085 -51.42078735 54.45237122 -52.01269531 53.85009766 C-52.51263 53.33001129 -53.0125647 52.80992493 -53.52764893 52.27407837 C-55.08475784 51.07254462 -55.08475784 51.07254462 -57.19647217 51.4883728 C-59.31895062 52.17285573 -59.31895062 52.17285573 -60.53125 54.5390625 C-61.39641753 57.31591691 -61.39641753 57.31591691 -59.86247253 59.71318054 C-58.17776008 62.16671428 -56.46469873 64.15955369 -54.35668945 66.25317383 C-53.61614822 66.993564 -52.87560699 67.73395416 -52.11262512 68.4967804 C-50.92185616 69.67206551 -50.92185616 69.67206551 -49.70703125 70.87109375 C-48.89002243 71.68527267 -48.07301361 72.4994516 -47.23124695 73.33830261 C-44.62758092 75.93079765 -42.01703758 78.51624133 -39.40625 81.1015625 C-37.63691146 82.86086729 -35.86802585 84.62062774 -34.09960938 86.38085938 C-29.76955964 90.68888958 -25.43384653 94.99115531 -21.09375 99.2890625 C-22.69910287 102.69965653 -24.49893901 104.90698734 -27.21875 107.5390625 C-27.94320312 108.24546875 -28.66765625 108.951875 -29.4140625 109.6796875 C-30.24550781 110.47632813 -30.24550781 110.47632813 -31.09375 111.2890625 C-35.05706466 109.11169828 -38.05472325 106.59565299 -41.26708984 103.42211914 C-41.7571048 102.9404277 -42.24711975 102.45873627 -42.75198364 101.96244812 C-44.35830489 100.38008349 -45.95699247 98.79028983 -47.5546875 97.19921875 C-48.67087516 96.09200187 -49.78713809 94.98486087 -50.9034729 93.87779236 C-53.23542762 91.56228649 -55.5629895 89.24245953 -57.88818359 86.92016602 C-60.87263578 83.94112155 -63.87294733 80.97860612 -66.87737083 78.01972294 C-69.18484108 75.7419293 -71.48104132 73.45302965 -73.77421951 71.16085625 C-74.8761862 70.06310347 -75.98228635 68.96948416 -77.09251022 67.88008308 C-78.63929665 66.36004128 -80.16961403 64.82512087 -81.69677734 63.28540039 C-83.00985367 61.97993004 -83.00985367 61.97993004 -84.34945679 60.64808655 C-86.09375 58.2890625 -86.09375 58.2890625 -86.04043579 56.15257263 C-84.39974608 52.92294573 -82.05372439 51.28135296 -79.09375 49.2890625 C-76.21875 49.4765625 -76.21875 49.4765625 -74.09375 50.2890625 C-74.0009375 48.46375 -74.0009375 48.46375 -73.90625 46.6015625 C-73.38211874 42.13056398 -71.58788605 40.15604592 -68.09375 37.2890625 C-64.72654613 38.68238824 -63.1077976 40.2679911 -61.09375 43.2890625 C-61.14595703 42.43634766 -61.14595703 42.43634766 -61.19921875 41.56640625 C-61.42147484 35.22681581 -60.70189343 30.45103392 -56.51171875 25.37109375 C-52.02388866 20.62905107 -48.83755059 18.51033674 -42.21875 17.9765625 C-37.95200098 18.06579109 -34.88394255 19.39396623 -31.09375 21.2890625 C-31.58875 20.5053125 -32.08375 19.7215625 -32.59375 18.9140625 C-34.55651316 14.17071821 -35.02223767 10.35008137 -34.09375 5.2890625 C-31.27236602 -1.12408335 -27.4551546 -4.93505186 -21.09375 -7.7109375 C-12.26438159 -10.88045437 -6.22132533 -5.60294059 0 0 Z M-24.09375 28.2890625 C-19.97755164 33.20842152 -15.68964638 37.81554206 -11.09375 42.2890625 C-12.75238505 46.61411086 -15.964791 49.38325075 -19.21875 52.5390625 C-19.78207031 53.09335938 -20.34539062 53.64765625 -20.92578125 54.21875 C-22.31061028 55.58010735 -23.70158204 56.93521109 -25.09375 58.2890625 C-19.27646822 65.51703635 -19.27646822 65.51703635 -12.09375 71.2890625 C-10.77375 71.2890625 -9.45375 71.2890625 -8.09375 71.2890625 C-7.58825706 69.04480818 -7.58825706 69.04480818 -8.09375 66.2890625 C-9.88715357 64.04992998 -11.92827663 62.16451711 -14.09375 60.2890625 C-12.67636511 57.03699158 -10.96848588 54.97545183 -8.40625 52.5390625 C-4.92618503 49.15408127 -1.69637588 45.6391048 1.4609375 41.953125 C2.56027798 40.68739786 3.7207934 39.4745191 4.90625 38.2890625 C8.55356135 38.58789683 10.52881648 40.44308177 13.15625 42.8515625 C13.86265625 43.49222656 14.5690625 44.13289063 15.296875 44.79296875 C15.82796875 45.28667969 16.3590625 45.78039062 16.90625 46.2890625 C17.56625 45.9590625 18.22625 45.6290625 18.90625 45.2890625 C18.82276691 42.45063749 18.3338772 40.74856936 16.38671875 38.65625 C12.28152987 35.0782538 9.29147486 33.22515129 3.73828125 33.04296875 C2.52108398 32.99366211 2.52108398 32.99366211 1.27929688 32.94335938 C-0.40809137 32.88286567 -2.09559503 32.82549837 -3.78320312 32.77148438 C-10.99926208 32.47010445 -17.42437973 31.20691199 -24.09375 28.2890625 Z M-45.09375 33.2890625 C-45.98966712 35.01632731 -45.98966712 35.01632731 -46.09375 37.2890625 C-44.33381452 39.91791208 -44.33381452 39.91791208 -41.84375 42.4140625 C-41.03421875 43.28289062 -40.2246875 44.15171875 -39.390625 45.046875 C-37.10886742 47.4120815 -37.10886742 47.4120815 -34.09375 49.2890625 C-32.77375 47.6390625 -31.45375 45.9890625 -30.09375 44.2890625 C-31.64338153 42.63110721 -33.20899769 40.98808206 -34.78125 39.3515625 C-36.08642578 37.97677734 -36.08642578 37.97677734 -37.41796875 36.57421875 C-40.14816092 34.24259478 -41.57567553 33.58698953 -45.09375 33.2890625 Z " fill="#141414" transform="translate(275.09375,79.7109375)"/>
<path d="M0 0 C2.48751683 1.1098152 3.91371346 2.49347097 5.78125 4.46875 C6.39484375 5.10941406 7.0084375 5.75007812 7.640625 6.41015625 C8.09953125 6.90386719 8.5584375 7.39757812 9.03125 7.90625 C11.52486571 6.70243552 13.71268083 5.45196278 16.03125 3.90625 C18.67125 6.54625 21.31125 9.18625 24.03125 11.90625 C22.03125 15.90625 22.03125 15.90625 20.03125 18.90625 C24.61827617 23.64518385 29.22849309 28.36060899 33.85571289 33.06030273 C35.42758437 34.66238065 36.99403315 36.2697976 38.55493164 37.88256836 C40.79736478 40.19763668 43.05849035 42.49291082 45.32421875 44.78515625 C46.36826118 45.87565025 46.36826118 45.87565025 47.43339539 46.98817444 C48.09370255 47.64893478 48.7540097 48.30969513 49.43432617 48.99047852 C50.00946457 49.57894058 50.58460297 50.16740265 51.1771698 50.7736969 C53.03210935 52.15475886 53.03210935 52.15475886 55.56855774 51.71348572 C58.24288819 50.95866928 58.24288819 50.95866928 61.03125 48.90625 C64.00125 51.87625 66.97125 54.84625 70.03125 57.90625 C66.64186947 63.55521755 66.64186947 63.55521755 63.53125 65.65625 C62.9434375 66.06359375 62.355625 66.4709375 61.75 66.890625 C57.85139841 69.19434412 54.46217289 69.2694404 50.03125 68.90625 C43.27716083 66.58420862 38.69705408 62.10624357 33.8125 57.078125 C33.06915405 56.32911926 32.32580811 55.58011353 31.55993652 54.80841064 C29.20741324 52.43364699 26.8692491 50.04530553 24.53125 47.65625 C22.9306188 46.03553804 21.32906523 44.41573648 19.7265625 42.796875 C15.81739327 38.84380225 11.91989224 34.87951137 8.03125 30.90625 C7.37125 31.56625 6.71125 32.22625 6.03125 32.90625 C20.88125 47.75625 35.73125 62.60625 51.03125 77.90625 C49.05125 80.21625 47.07125 82.52625 45.03125 84.90625 C40.65625 84.84375 40.65625 84.84375 37.03125 83.90625 C37.11375 85.1025 37.19625 86.29875 37.28125 87.53125 C37.28917991 92.00372065 35.91829087 94.44180096 33.03125 97.90625 C29.99714663 99.92898558 29.17754 100.22151269 25.71875 100.28125 C24.98011719 100.30960937 24.24148437 100.33796875 23.48046875 100.3671875 C17.08151762 99.16291919 12.31109072 93.58068137 7.84375 89.15625 C7.22822266 88.57359375 6.61269531 87.9909375 5.97851562 87.390625 C1.20583708 82.67482562 -1.46516016 78.2660963 -2.25390625 71.4375 C-1.57749189 65.26670231 0.93970072 61.4982946 5.03125 56.90625 C3.59715028 53.54763305 1.83755679 51.54750061 -0.90625 49.15625 C-1.59589844 48.54265625 -2.28554687 47.9290625 -2.99609375 47.296875 C-4.97515538 45.61816263 -4.97515538 45.61816263 -7.96875 45.90625 C-6.5750218 50.34083973 -4.36292765 52.78003374 -0.96875 55.90625 C-2.44596422 59.35826639 -4.40669001 61.55586936 -7.09375 64.15625 C-7.81820312 64.86265625 -8.54265625 65.5690625 -9.2890625 66.296875 C-10.12050781 67.09351563 -10.12050781 67.09351563 -10.96875 67.90625 C-22.3386148 58.61234366 -22.3386148 58.61234366 -23.96875 50.90625 C-24.28170466 44.6703387 -22.70924789 40.395439 -18.69140625 35.63671875 C-14.09872165 31.02320565 -10.58909451 29.68987997 -4.03125 29.65625 C-2.34289209 29.71987587 -0.65473758 29.79649312 1.03125 29.90625 C0.37125 29.24625 -0.28875 28.58625 -0.96875 27.90625 C-1.05125 26.648125 -1.13375 25.39 -1.21875 24.09375 C-1.77331889 17.43892338 -4.99807291 11.78401171 -7.96875 5.90625 C-7.06847412 4.87093274 -6.14781965 3.85330835 -5.21875 2.84375 C-4.70828125 2.27527344 -4.1978125 1.70679688 -3.671875 1.12109375 C-1.96875 -0.09375 -1.96875 -0.09375 0 0 Z M15.03125 64.90625 C12.79377474 67.63193911 12.79377474 67.63193911 13.109375 70.2578125 C14.3277584 73.75808346 16.17968109 75.65659025 18.78125 78.28125 C19.64234375 79.17585938 20.5034375 80.07046875 21.390625 80.9921875 C23.87189409 83.22408059 23.87189409 83.22408059 26.859375 82.6953125 C27.93445313 82.30472656 27.93445313 82.30472656 29.03125 81.90625 C28.71273343 76.54123655 25.71671921 74.08815226 22.03125 70.59375 C21.19207031 69.76907227 21.19207031 69.76907227 20.3359375 68.92773438 C18.04501606 66.16905368 18.04501606 66.16905368 15.03125 64.90625 Z " fill="#131313" transform="translate(141.96875,164.09375)"/>
<path d="M0 0 C4.00161119 1.61341554 6.72665227 4.41722229 9.73071289 7.40844727 C10.29218521 7.95998978 10.85365753 8.51153229 11.43214417 9.07978821 C13.28459486 10.90307292 15.12921091 12.73401955 16.97265625 14.56640625 C18.26012452 15.8423637 19.54759505 17.11831887 20.83506775 18.39427185 C23.5330154 21.07122043 26.22628295 23.75278949 28.91723633 26.43676758 C32.3558423 29.86441902 35.8125883 33.27313425 39.27407169 36.67765903 C41.94114382 39.30736339 44.59458853 41.95050576 47.24456596 44.59742546 C48.51258847 45.85941795 49.78558424 47.11643475 51.06370735 48.36819649 C64.42170856 61.47020404 64.42170856 61.47020404 65 69 C64.46294583 75.60983731 62.40093212 80.96086917 57.34765625 85.4765625 C52.64796841 88.91723376 48.47102532 89.76529842 42.6875 89.4921875 C36.34789428 88.33115506 32.77761462 85.0368195 29 80 C32.3 76.7 35.6 73.4 39 70 C40.32 70.66 41.64 71.32 43 72 C44.99110401 72.38290462 46.99100513 72.72604615 49 73 C47.54718935 67.67302761 43.91888622 64.63597198 40 61 C39.76925781 61.53109375 39.53851563 62.0621875 39.30078125 62.609375 C37.22052121 67.11523469 35.50772833 70.54123909 31 73 C24.72858494 73.80921485 21.23976803 72.54707789 16 69 C13.25969658 66.67135461 10.73357804 64.1547374 8.203125 61.6015625 C7.12995026 60.53269302 7.12995026 60.53269302 6.03509521 59.44223022 C4.53224096 57.94140813 3.0331311 56.43682816 1.53759766 54.92871094 C-0.74642001 52.62860521 -3.04603221 50.34497249 -5.34765625 48.0625 C-6.81085887 46.59731527 -8.27313076 45.13120035 -9.734375 43.6640625 C-10.41876648 42.98574371 -11.10315796 42.30742493 -11.80828857 41.60855103 C-16.40124725 36.94750071 -20.42501902 32.38950303 -20.4375 25.5 C-20.25532458 20.99115832 -19.12690484 18.36743598 -16 15 C-11.96729998 12.83962499 -9.59153355 12 -5 12 C-5.433125 10.700625 -5.433125 10.700625 -5.875 9.375 C-6 6 -6 6 -4.73046875 4.265625 C-3.20554038 2.76569546 -1.65577299 1.35341444 0 0 Z M-3 22 C-3.74053493 23.8313152 -3.74053493 23.8313152 -4 26 C-3.03669121 27.72151654 -3.03669121 27.72151654 -1.4230957 29.22387695 C-0.83530838 29.82742508 -0.24752106 30.43097321 0.358078 31.05281067 C1.00690445 31.69151596 1.6557309 32.33022125 2.32421875 32.98828125 C2.98202835 33.65087448 3.63983795 34.31346771 4.31758118 34.99613953 C5.71297923 36.39494303 7.11472329 37.78744002 8.5222168 39.17407227 C10.67910902 41.30421309 12.80807471 43.45966159 14.93554688 45.61914062 C16.29267052 46.97296029 17.65134434 48.32522814 19.01171875 49.67578125 C19.96977669 50.64902092 19.96977669 50.64902092 20.94718933 51.641922 C21.55073746 52.22970932 22.15428558 52.81749664 22.77612305 53.4230957 C23.56674385 54.20774956 23.56674385 54.20774956 24.37333679 55.008255 C26.00314563 56.24156918 26.00314563 56.24156918 28.20149231 55.66105652 C28.79499985 55.44290787 29.38850739 55.22475922 30 55 C29.67240722 49.36023448 27.30072089 46.56466212 23.42578125 42.76171875 C22.86432907 42.19548294 22.30287689 41.62924713 21.72441101 41.04585266 C20.53766421 39.85571348 19.3446198 38.67182481 18.14575195 37.49389648 C16.31819506 35.69311163 14.51884378 33.86721479 12.72070312 32.03710938 C11.56149554 30.881206 10.40073778 29.72685471 9.23828125 28.57421875 C8.70366776 28.0294841 8.16905426 27.48474945 7.61824036 26.92350769 C4.20803889 23.61729503 1.75947372 22.27645994 -3 22 Z " fill="#131313" transform="translate(365,205)"/>
<path d="M0 0 C1.98 1.98 1.98 1.98 4 4 C-128 136 -260 268 -396 404 C-397.32 402.68 -398.64 401.36 -400 400 C-268 268 -136 136 0 0 Z " fill="#2A2A2A" transform="translate(448,48)"/>
<path d="M0 0 C7.90828736 7.26688847 15.34830274 14.63110262 18.4921875 25.17236328 C18.35372256 32.78793521 15.59463808 38.16572618 10.4296875 43.60986328 C12.0144233 47.47314955 14.48925637 49.89863251 17.4375 52.81298828 C17.92298309 53.29564148 18.40846619 53.77829468 18.90866089 54.27557373 C20.45268616 55.8084489 22.00353574 57.33420332 23.5546875 58.85986328 C24.60592759 59.90106689 25.65671407 60.94272869 26.70703125 61.98486328 C29.27601754 64.53185792 31.85116911 67.07251505 34.4296875 69.60986328 C33.49090824 70.71645738 32.55047834 71.82165127 31.609375 72.92626953 C31.08585449 73.54187744 30.56233398 74.15748535 30.02294922 74.79174805 C27.9281084 77.18222913 25.70996279 79.39665491 23.4296875 81.60986328 C20.65867168 80.34114382 18.59911064 79.03267365 16.43632507 76.89065552 C15.87404709 76.33835266 15.3117691 75.7860498 14.73245239 75.2170105 C14.12811371 74.61333649 13.52377502 74.00966248 12.90112305 73.38769531 C12.25519699 72.75009277 11.60927094 72.11249023 10.94377136 71.45556641 C8.81250765 69.34838066 6.68896511 67.23362749 4.56640625 65.11767578 C3.09006871 63.65030252 1.61365264 62.18300826 0.13716125 60.71578979 C-2.95404076 57.64107172 -6.04082655 54.56199171 -9.12524414 51.48046875 C-13.08607942 47.52503262 -17.06283534 43.58602369 -21.04369831 39.65075874 C-24.09662388 36.6275037 -27.13830557 33.59312862 -30.17693138 30.55550766 C-31.6389465 29.09771068 -33.10510117 27.64405341 -34.5753727 26.19458389 C-36.62511078 24.17156548 -38.65860279 22.13350042 -40.6887207 20.09082031 C-41.61041046 19.19138199 -41.61041046 19.19138199 -42.55072021 18.27377319 C-44.21186829 16.58303833 -44.21186829 16.58303833 -46.5703125 13.60986328 C-46.12704483 10.14520918 -44.83830852 8.49351222 -42.40234375 6.04345703 C-41.75587891 5.393125 -41.10941406 4.74279297 -40.44335938 4.07275391 C-39.76337891 3.404375 -39.08339844 2.73599609 -38.3828125 2.04736328 C-37.3918457 1.03899414 -37.3918457 1.03899414 -36.38085938 0.01025391 C-24.30891605 -11.99018728 -12.32138508 -10.90764407 0 0 Z M-24.5703125 9.60986328 C-23.0311324 13.27738333 -20.81545798 15.59566901 -18 18.37548828 C-17.10410156 19.26494141 -16.20820313 20.15439453 -15.28515625 21.07080078 C-13.87943359 22.45138672 -13.87943359 22.45138672 -12.4453125 23.85986328 C-11.49042613 24.80471185 -10.53599391 25.75001961 -9.58203125 26.69580078 C-7.24922163 29.00504666 -4.91187164 31.30949531 -2.5703125 33.60986328 C-1.5803125 33.27986328 -0.5903125 32.94986328 0.4296875 32.60986328 C1.564097 30.00851345 1.564097 30.00851345 1.4296875 26.60986328 C-0.48023409 23.54875607 -3.02628764 21.14944054 -5.5703125 18.60986328 C-6.39015625 17.71912109 -7.21 16.82837891 -8.0546875 15.91064453 C-15.14985711 7.78026026 -15.14985711 7.78026026 -24.5703125 9.60986328 Z " fill="#171717" transform="translate(237.5703125,338.39013671875)"/>
<path d="M0 0 C3.8239492 1.57877433 6.23642099 3.99501713 9.13574219 6.90869141 C9.63375839 7.40641556 10.1317746 7.90413971 10.6448822 8.41694641 C12.28366733 10.0571207 13.91526134 11.70425661 15.546875 13.3515625 C16.68415347 14.49257256 17.8218754 15.63314077 18.96002197 16.77328491 C21.94989979 19.77078762 24.93372191 22.77424851 27.9163208 25.7789917 C30.96271321 28.84586712 34.01479703 31.90706694 37.06640625 34.96875 C43.04985434 40.97362783 49.02691663 46.98481232 55 53 C53.39464713 56.41059403 51.59481099 58.61792484 48.875 61.25 C48.15054688 61.95640625 47.42609375 62.6628125 46.6796875 63.390625 C46.12539063 63.92171875 45.57109375 64.4528125 45 65 C41.64000982 63.54131246 39.44796894 61.69131052 36.87402344 59.10107422 C36.07349548 58.3003952 35.27296753 57.49971619 34.44818115 56.67477417 C33.59387512 55.81014557 32.73956909 54.94551697 31.859375 54.0546875 C30.97719299 53.1696756 30.09501099 52.2846637 29.18609619 51.37283325 C26.84805457 49.02549869 24.51444126 46.67393215 22.18286133 44.32019043 C19.80003474 41.91686073 17.41149652 39.51922233 15.0234375 37.12109375 C10.34368138 32.41928533 5.66968133 27.71181336 1 23 C-1.69931981 24.50789479 -1.69931981 24.50789479 -4 27 C-4.45414193 31.09736245 -3.87069957 32.86041298 -1.37716675 36.12399292 C0.88069822 38.57811296 3.22742491 40.90106965 5.62890625 43.21484375 C6.92525246 44.49845543 6.92525246 44.49845543 8.24778748 45.80799866 C11.00557554 48.53225785 13.78350594 51.23489284 16.5625 53.9375 C18.43821619 55.7831167 20.31258209 57.6301068 22.18554688 59.47851562 C26.77482751 64.00171796 31.38081477 68.50735207 36 73 C35.59152832 73.47630859 35.18305664 73.95261719 34.76220703 74.44335938 C34.22450684 75.07048828 33.68680664 75.69761719 33.1328125 76.34375 C32.60059082 76.96443359 32.06836914 77.58511719 31.52001953 78.22460938 C30.30204799 79.64720639 29.08789125 81.07306912 27.875 82.5 C26 84 26 84 24.20953369 83.89918518 C21.02629697 82.60374474 19.19012731 80.54830785 16.77246094 78.11303711 C16.01080627 77.35203957 16.01080627 77.35203957 15.23376465 76.57566833 C13.56009075 74.89990733 11.89728872 73.21377731 10.234375 71.52734375 C9.07489473 70.36226727 7.91474958 69.19785214 6.75396729 68.03407288 C3.70267213 64.97133103 0.66049375 61.89968669 -2.37988281 58.82611084 C-5.4847856 55.69050356 -8.5982131 52.56338633 -11.7109375 49.43554688 C-17.81567432 43.29864898 -23.91080744 37.15232143 -30 31 C-28.38601283 27.65221003 -27.05908239 25.23230337 -24 23 C-20.25 23.25 -20.25 23.25 -17 24 C-17.0825 22.96875 -17.165 21.9375 -17.25 20.875 C-16.95271596 16.26709746 -15.95689208 14.50158272 -13 11 C-11.02053408 9.63636792 -9.0180755 8.30581356 -7 7 C-4.57609951 4.75167379 -2.27600314 2.39721041 0 0 Z " fill="#141414" transform="translate(266,305)"/>
<path d="M0 0 C6.32916938 5.24244221 12.16510197 10.94859778 18 16.7265625 C18.51335907 17.23459789 19.02671814 17.74263329 19.55563354 18.26606369 C22.26144968 20.94535771 24.9637229 23.62817291 27.66357422 26.31347656 C29.89532889 28.5317963 32.13416981 30.7425816 34.37939453 32.94726562 C37.10229569 35.62103033 39.81288558 38.30669485 42.51489258 41.00156784 C43.5441586 42.02410817 44.57768496 43.04237845 45.61547852 44.05626297 C47.05862472 45.46798022 48.48485115 46.89693224 49.91015625 48.32666016 C50.72621338 49.13463043 51.54227051 49.94260071 52.38305664 50.77505493 C54 53 54 53 53.92749023 55.11630249 C52.32263935 58.37569381 49.965558 60.00395135 47 62 C44.125 61.8125 44.125 61.8125 42 61 C41.87044922 61.87011719 41.87044922 61.87011719 41.73828125 62.7578125 C40.6893918 68.58925295 39.19886563 71.80113437 35 76 C31.70555952 77.64722024 28.54811218 77.62364704 25 77 C17.40502943 73.26325653 11.56891401 66.96326008 5.71484375 61.0078125 C4.7642992 60.0516578 3.81307907 59.0961743 2.86122131 58.1413269 C0.38368529 55.6524537 -2.08469898 53.15470097 -4.55114746 50.65484619 C-7.07995821 48.09509167 -9.61751277 45.54403606 -12.15429688 42.9921875 C-17.11135003 38.0031672 -22.05876633 33.00469289 -27 28 C-23.32167983 23.47384007 -19.58913637 19.60575001 -15 16 C-14.20526276 16.81139183 -14.20526276 16.81139183 -13.39447021 17.63917542 C-8.404723 22.729013 -3.40313677 27.80677143 1.61226273 32.87132359 C4.19046589 35.47564608 6.76380344 38.08442438 9.32666016 40.70385742 C11.79909554 43.23052916 14.28346709 45.74487002 16.77666473 48.25105095 C18.18990359 49.67805605 19.59042281 51.11762148 20.99078369 52.55726624 C21.8513739 53.4182341 22.71196411 54.27920197 23.59863281 55.16625977 C24.35364075 55.93237076 25.10864868 56.69848175 25.88653564 57.48780823 C27.88007342 59.27133446 27.88007342 59.27133446 30.27508545 58.73960876 C30.84430725 58.49553787 31.41352905 58.25146698 32 58 C30.65612059 54.00854974 28.99089099 51.62287665 26.00927734 48.66870117 C25.18857758 47.848228 24.36787781 47.02775482 23.52230835 46.18241882 C22.63580597 45.3114003 21.74930359 44.44038177 20.8359375 43.54296875 C19.92872955 42.64000565 19.02152161 41.73704254 18.08682251 40.80671692 C15.68333846 38.41464752 13.27098064 36.0317276 10.85662842 33.65063477 C8.39115664 31.21593695 5.93423189 28.77264726 3.4765625 26.33007812 C-1.34113551 21.54544341 -6.16729816 16.7694771 -11 12 C-10.06122074 10.8934059 -9.12079084 9.78821201 -8.1796875 8.68359375 C-7.39440674 7.76018188 -7.39440674 7.76018188 -6.59326172 6.81811523 C-4.4984209 4.42763415 -2.28027529 2.21320837 0 0 Z " fill="#1A1A1A" transform="translate(186,140)"/>
<path d="M0 0 C0.74765625 -0.03738281 1.4953125 -0.07476562 2.265625 -0.11328125 C7.71696661 0.82098956 11.78293353 5.09703203 15.56201172 8.89746094 C16.46249237 9.79809265 17.36297302 10.69872437 18.29074097 11.62664795 C19.25383213 12.59994914 20.21681175 13.5733607 21.1796875 14.546875 C22.179584 15.55050692 23.1799269 16.55369429 24.18069458 17.55645752 C26.7990191 20.18237681 29.41127845 22.8142485 32.02227783 25.44744873 C34.69347372 28.13919306 37.3704208 30.82520462 40.046875 33.51171875 C45.28686336 38.7730836 50.52045111 44.0407565 55.75 49.3125 C54.27487842 52.38706913 52.75176371 54.66001581 50.375 57.125 C49.78976562 57.75019531 49.20453125 58.37539063 48.6015625 59.01953125 C46.75 60.3125 46.75 60.3125 44.88719177 60.12890625 C42.14876379 59.08282805 40.7475212 57.64287136 38.70336914 55.54296875 C37.91897964 54.74544189 37.13459015 53.94791504 36.32643127 53.1262207 C35.48781052 52.25956787 34.64918976 51.39291504 33.78515625 50.5 C31.99814753 48.68479674 30.21103496 46.86969571 28.42382812 45.0546875 C26.08129744 42.66031006 23.74012701 40.26466401 21.40264893 37.86535645 C18.22875708 34.60751672 15.04029833 31.36445295 11.84765625 28.125 C11.01105972 27.25834717 10.1744632 26.39169434 9.31251526 25.4987793 C8.5249736 24.70125244 7.73743195 23.90372559 6.92602539 23.08203125 C6.23859756 22.37667236 5.55116974 21.67131348 4.84291077 20.94458008 C2.45982475 19.08621742 0.72126261 18.6633777 -2.25 18.3125 C-1.7944775 23.12484825 -0.80601384 25.37660869 2.62719727 28.75732422 C3.44797256 29.57772186 4.26874786 30.39811951 5.11439514 31.24337769 C6.45189064 32.54216354 6.45189064 32.54216354 7.81640625 33.8671875 C9.17934059 35.21950974 9.17934059 35.21950974 10.56980896 36.59915161 C12.97721213 38.98752947 15.39925069 41.36050617 17.82470703 43.73052979 C20.30040273 46.15493625 22.76187887 48.59368687 25.22460938 51.03125 C30.05343502 55.80496894 34.89625435 60.56412823 39.75 65.3125 C38.27487842 68.38706913 36.75176371 70.66001581 34.375 73.125 C33.49714844 74.06279297 33.49714844 74.06279297 32.6015625 75.01953125 C30.75 76.3125 30.75 76.3125 28.96099854 76.19874573 C25.76872323 74.91916987 23.94142042 72.86211037 21.52246094 70.42553711 C20.76080627 69.66453957 20.76080627 69.66453957 19.98376465 68.88816833 C18.31009075 67.21240733 16.64728872 65.52627731 14.984375 63.83984375 C13.82489473 62.67476727 12.66474958 61.51035214 11.50396729 60.34657288 C8.45267213 57.28383103 5.41049375 54.21218669 2.37011719 51.13861084 C-0.7347856 48.00300356 -3.8482131 44.87588633 -6.9609375 41.74804688 C-13.06567432 35.61114898 -19.16080744 29.46482143 -25.25 23.3125 C-23.63601283 19.96471003 -22.30908239 17.54480337 -19.25 15.3125 C-15.5 15.5625 -15.5 15.5625 -12.25 16.3125 C-12.22873047 15.44238281 -12.22873047 15.44238281 -12.20703125 14.5546875 C-11.83452025 8.4535614 -10.63435075 5.58991536 -6.25 1.3125 C-3.97885524 0.17692762 -2.52706381 0.08165682 0 0 Z " fill="#131313" transform="translate(335.25,238.6875)"/>
<path d="M0 0 C7.09089711 3.64193165 12.57881505 9.20387972 18.0625 14.875 C18.83271484 15.65875 19.60292969 16.4425 20.39648438 17.25 C22.27145808 19.1599111 24.1389901 21.07649708 26 23 C22.66883385 26.95374187 19.31571444 30.81041857 15.625 34.4375 C14.93664062 35.11683594 14.24828125 35.79617188 13.5390625 36.49609375 C13.03117187 36.99238281 12.52328125 37.48867188 12 38 C13.52524036 41.60286506 15.67485437 43.94299983 18.4375 46.6875 C19.21996094 47.47511719 20.00242188 48.26273437 20.80859375 49.07421875 C22.93462611 51.19415343 22.93462611 51.19415343 26 52 C26.33 51.01 26.66 50.02 27 49 C25.56941504 46.86053062 25.56941504 46.86053062 23.5625 44.8125 C22.90378906 44.09707031 22.24507812 43.38164062 21.56640625 42.64453125 C20.79103516 41.83048828 20.79103516 41.83048828 20 41 C22.52704327 35.78797325 26.61773359 32.6119868 31 29 C37.18741588 33.60458856 41.75733907 38.71903799 43 46.5625 C43.34725967 52.50676855 41.08076824 56.48108248 37.6875 61.25 C32.56186954 66.49483117 28.15328537 67.34221462 21.07421875 67.69140625 C10.70473115 65.35925974 2.91841625 55.37746467 -4.27661133 48.11450195 C-6.31461292 46.06037036 -8.36822209 44.02282591 -10.42382812 41.98632812 C-11.73794252 40.67023203 -13.05112639 39.35320602 -14.36328125 38.03515625 C-14.970616 37.4338942 -15.57795074 36.83263214 -16.20368958 36.21315002 C-21.11929216 31.21617749 -25.55879402 25.97386432 -25.625 18.625 C-25.3813186 12.51615928 -23.18279895 8.39285217 -19 4 C-12.88879286 -0.65431598 -7.33484364 -1.75991586 0 0 Z M-9 14 C-9.99331682 16.19950692 -9.99331682 16.19950692 -10 19 C-8.23526782 21.21263375 -6.63273028 22.93752723 -4.5625 24.8125 C-4.03333984 25.31458984 -3.50417969 25.81667969 -2.95898438 26.33398438 C-1.65239036 27.56995168 -0.32783937 28.78688595 1 30 C2.32 29.01 3.64 28.02 5 27 C3.54253764 23.65685181 1.69015913 21.3921789 -0.875 18.8125 C-1.55304688 18.11769531 -2.23109375 17.42289063 -2.9296875 16.70703125 C-5.03086032 14.9745548 -6.34102145 14.39944297 -9 14 Z " fill="#171717" transform="translate(116,222)"/>
<path d="M0 0 C4.11586334 2.72098841 7.75992146 6.09472608 11.375 9.4375 C10.85723379 13.54197392 8.72872556 15.39449523 5.8125 18.1875 C4.57306641 19.38632812 4.57306641 19.38632812 3.30859375 20.609375 C2.67050781 21.21265625 2.03242188 21.8159375 1.375 22.4375 C0.24911986 21.48020084 -0.8756715 20.52162105 -2 19.5625 C-2.62648438 19.02882813 -3.25296875 18.49515625 -3.8984375 17.9453125 C-5.18336651 16.82317993 -6.41871975 15.64378025 -7.625 14.4375 C-8.945 14.4375 -10.265 14.4375 -11.625 14.4375 C-11.0409642 17.72323563 -10.07220353 19.3680553 -7.72924805 21.72143555 C-7.12159103 22.33854904 -6.51393402 22.95566254 -5.88786316 23.59147644 C-4.89729668 24.57293388 -4.89729668 24.57293388 -3.88671875 25.57421875 C-3.209543 26.25426468 -2.53236725 26.93431061 -1.83467102 27.63496399 C-0.40168847 29.06998699 1.03508548 30.50123251 2.4753418 31.92895508 C4.67916428 34.11672499 6.86654859 36.32001266 9.05273438 38.52539062 C10.44695577 39.91762959 11.84210751 41.30893765 13.23828125 42.69921875 C13.89258621 43.35959641 14.54689117 44.01997406 15.22102356 44.70036316 C15.83813705 45.30802017 16.45525055 45.91567719 17.09106445 46.54174805 C17.89928398 47.34638741 17.89928398 47.34638741 18.72383118 48.1672821 C20.58788185 49.60126662 22.0781394 50.02923562 24.375 50.4375 C23.88786902 46.02239226 22.52446803 44.13303355 19.3125 41.125 C18.57902344 40.42761719 17.84554687 39.73023438 17.08984375 39.01171875 C16.52394531 38.49222656 15.95804687 37.97273438 15.375 37.4375 C16.85221422 33.98548361 18.81294001 31.78788064 21.5 29.1875 C22.22445312 28.48109375 22.94890625 27.7746875 23.6953125 27.046875 C24.24960937 26.51578125 24.80390625 25.9846875 25.375 25.4375 C29.35400266 27.55546826 31.80270046 29.82516113 34.5625 33.375 C35.23667969 34.22964844 35.91085937 35.08429688 36.60546875 35.96484375 C40.33687478 41.17892767 41.19178793 45.08121442 40.375 51.4375 C38.74001505 57.13925132 35.5280225 61.00240705 30.640625 64.296875 C25.92075279 66.67308653 21.3757338 67.25116514 16.24291992 65.859375 C7.52670571 61.95927782 1.25173549 55.06729901 -5.34936523 48.36499023 C-7.43278167 46.25477902 -9.54157227 44.17261834 -11.65429688 42.09179688 C-26.57397247 27.2107885 -26.57397247 27.2107885 -28.1875 16.8125 C-26.99403985 9.65173909 -23.88026836 5.12053672 -18.30859375 0.56640625 C-12.89876519 -3.0610658 -5.70775033 -2.46023721 0 0 Z " fill="#171717" transform="translate(302.625,284.5625)"/>
<path d="M0 0 C3.41059403 1.60535287 5.61792484 3.40518901 8.25 6.125 C8.95640625 6.84945312 9.6628125 7.57390625 10.390625 8.3203125 C11.18726563 9.15175781 11.18726563 9.15175781 12 10 C11.60167969 10.45890625 11.20335937 10.9178125 10.79296875 11.390625 C9.99826172 12.31101563 9.99826172 12.31101563 9.1875 13.25 C8.66542969 13.85328125 8.14335938 14.4565625 7.60546875 15.078125 C6.00229513 16.99725255 4.5003859 18.99948547 3 21 C8.61 26.61 14.22 32.22 20 38 C23.90432869 36.04783565 26.03839944 34.12613393 29 31 C32.45201639 32.47721422 34.64961936 34.43794001 37.25 37.125 C37.95640625 37.84945312 38.6628125 38.57390625 39.390625 39.3203125 C39.92171875 39.87460937 40.4528125 40.42890625 41 41 C39.27845212 44.76488042 37.00765886 47.15063897 34 50 C35.59085436 54.00755884 38.41784219 56.59120618 41.48046875 59.5 C42.57268211 60.56207186 43.6644664 61.62458512 44.75585938 62.6875 C46.47603091 64.35172098 48.19979557 66.01173269 49.93139648 67.6640625 C51.60467395 69.26502175 53.26208544 70.8810835 54.91796875 72.5 C55.70375557 73.23766602 55.70375557 73.23766602 56.50541687 73.99023438 C57.94213867 75.40625 57.94213867 75.40625 60 78 C59.90113101 82.07993332 57.27714473 84.03034026 54.4375 86.75 C53.19806641 87.94882812 53.19806641 87.94882812 51.93359375 89.171875 C50.97646484 90.07679688 50.97646484 90.07679688 50 91 C47.19612942 89.72113231 45.14751465 88.39618952 42.97540283 86.21591187 C42.12153236 85.36616539 42.12153236 85.36616539 41.25041199 84.49925232 C40.63829361 83.87994339 40.02617523 83.26063446 39.39550781 82.62255859 C38.74143448 81.96877731 38.08736115 81.31499603 37.41346741 80.6414032 C35.25524486 78.48178862 33.10419064 76.3151788 30.953125 74.1484375 C29.45712191 72.64870384 27.96067631 71.14941147 26.46380615 69.65054321 C22.52699775 65.70610188 18.59623266 61.75569106 14.66668701 57.80401611 C10.65511502 53.77197847 6.63786906 49.74560286 2.62109375 45.71875 C-5.25817445 37.81803787 -13.13107125 29.9110091 -21 22 C-20.04359074 20.87796703 -19.08629732 19.75668767 -18.12863159 18.63572693 C-17.59563383 18.01123374 -17.06263607 17.38674055 -16.51348686 16.74332333 C-14.79249612 14.76098481 -12.99709481 12.8830852 -11.1328125 11.03515625 C-10.47539063 10.38095703 -9.81796875 9.72675781 -9.140625 9.05273438 C-8.47546875 8.39595703 -7.8103125 7.73917969 -7.125 7.0625 C-6.43664063 6.37865234 -5.74828125 5.69480469 -5.0390625 4.99023438 C-3.36166489 3.32448536 -1.68196209 1.6611378 0 0 Z " fill="#171717" transform="translate(68,226)"/>
<path d="M0 0 C2.48751683 1.1098152 3.91371346 2.49347097 5.78125 4.46875 C6.39484375 5.10941406 7.0084375 5.75007812 7.640625 6.41015625 C8.09953125 6.90386719 8.5584375 7.39757812 9.03125 7.90625 C11.52486571 6.70243552 13.71268083 5.45196278 16.03125 3.90625 C18.67125 6.54625 21.31125 9.18625 24.03125 11.90625 C22.03125 15.90625 22.03125 15.90625 20.03125 18.90625 C24.61827617 23.64518385 29.22849309 28.36060899 33.85571289 33.06030273 C35.42758437 34.66238065 36.99403315 36.2697976 38.55493164 37.88256836 C40.79736478 40.19763668 43.05849035 42.49291082 45.32421875 44.78515625 C46.02024704 45.51215225 46.71627533 46.23914825 47.43339539 46.98817444 C48.09370255 47.64893478 48.7540097 48.30969513 49.43432617 48.99047852 C50.00946457 49.57894058 50.58460297 50.16740265 51.1771698 50.7736969 C53.03210935 52.15475886 53.03210935 52.15475886 55.56855774 51.71348572 C58.24288819 50.95866928 58.24288819 50.95866928 61.03125 48.90625 C64.00125 51.87625 66.97125 54.84625 70.03125 57.90625 C66.64186947 63.55521755 66.64186947 63.55521755 63.53125 65.65625 C62.9434375 66.06359375 62.355625 66.4709375 61.75 66.890625 C57.85139841 69.19434412 54.46217289 69.2694404 50.03125 68.90625 C43.27716083 66.58420862 38.69705408 62.10624357 33.8125 57.078125 C33.06915405 56.32911926 32.32580811 55.58011353 31.55993652 54.80841064 C29.20741324 52.43364699 26.8692491 50.04530553 24.53125 47.65625 C22.9306188 46.03553804 21.32906523 44.41573648 19.7265625 42.796875 C15.81739327 38.84380225 11.91989224 34.87951137 8.03125 30.90625 C6.38125 31.56625 4.73125 32.22625 3.03125 32.90625 C0.10968527 29.98468527 -1.15688319 27.96499702 -1.34375 23.90625 C-1.75667494 17.31061114 -5.0341459 11.71263794 -7.96875 5.90625 C-7.06847412 4.87093274 -6.14781965 3.85330835 -5.21875 2.84375 C-4.45304688 1.99103516 -4.45304688 1.99103516 -3.671875 1.12109375 C-1.96875 -0.09375 -1.96875 -0.09375 0 0 Z " fill="#1A1A1A" transform="translate(141.96875,164.09375)"/>
<path d="M0 0 C3.67056937 1.47797262 5.41085783 3.47615477 7.75 6.625 C8.67039063 7.85089844 8.67039063 7.85089844 9.609375 9.1015625 C10.06828125 9.72804688 10.5271875 10.35453125 11 11 C9.92474392 13.16423882 8.8333949 15.30940948 7.6875 17.4375 C6.68317323 20.0410508 6.68317323 20.0410508 8.22346497 22.41239929 C9.91124335 24.87072207 11.62515567 26.86662218 13.73706055 28.96411133 C14.47760178 29.7045015 15.21814301 30.44489166 15.98112488 31.2077179 C16.77497086 31.9912413 17.56881683 32.77476471 18.38671875 33.58203125 C19.20372757 34.39621017 20.02073639 35.2103891 20.86250305 36.04924011 C23.46616908 38.64173515 26.07671242 41.22717883 28.6875 43.8125 C30.45683854 45.57180479 32.22572415 47.33156524 33.99414062 49.09179688 C38.32419036 53.39982708 42.65990347 57.70209281 47 62 C45.39464713 65.41059403 43.59481099 67.61792484 40.875 70.25 C40.15054688 70.95640625 39.42609375 71.6628125 38.6796875 72.390625 C37.84824219 73.18726563 37.84824219 73.18726563 37 74 C33.03668534 71.82263578 30.03902675 69.30659049 26.82666016 66.13305664 C26.3366452 65.6513652 25.84663025 65.16967377 25.34176636 64.67338562 C23.73544511 63.09102099 22.13675753 61.50122733 20.5390625 59.91015625 C19.42287484 58.80293937 18.30661191 57.69579837 17.1902771 56.58872986 C14.85832238 54.27322399 12.5307605 51.95339703 10.20556641 49.63110352 C7.22111422 46.65205905 4.22080267 43.68954362 1.21637917 40.73066044 C-1.09109108 38.4528668 -3.38729132 36.16396715 -5.68046951 33.87179375 C-6.7824362 32.77404097 -7.88853635 31.68042166 -8.99876022 30.59102058 C-10.54554665 29.07097878 -12.07586403 27.53605837 -13.60302734 25.99633789 C-14.47841156 25.12602432 -15.35379578 24.25571075 -16.25570679 23.35902405 C-18 21 -18 21 -17.94668579 18.86351013 C-16.30599608 15.63388323 -13.95997439 13.99229046 -11 12 C-8.125 12.1875 -8.125 12.1875 -6 13 C-5.9071875 11.1746875 -5.9071875 11.1746875 -5.8125 9.3125 C-5.28836874 4.84150148 -3.49413605 2.86698342 0 0 Z " fill="#0D0D0D" transform="translate(207,117)"/>
<path d="M0 0 C3.8239492 1.57877433 6.23642099 3.99501713 9.13574219 6.90869141 C9.63375839 7.40641556 10.1317746 7.90413971 10.6448822 8.41694641 C12.28366733 10.0571207 13.91526134 11.70425661 15.546875 13.3515625 C16.68415347 14.49257256 17.8218754 15.63314077 18.96002197 16.77328491 C21.94989979 19.77078762 24.93372191 22.77424851 27.9163208 25.7789917 C30.96271321 28.84586712 34.01479703 31.90706694 37.06640625 34.96875 C43.04985434 40.97362783 49.02691663 46.98481232 55 53 C53.52487842 56.07456913 52.00176371 58.34751581 49.625 60.8125 C49.03976562 61.43769531 48.45453125 62.06289063 47.8515625 62.70703125 C46 64 46 64 44.21099854 63.88624573 C41.01872323 62.60666987 39.19142042 60.54961037 36.77246094 58.11303711 C36.01080627 57.35203957 36.01080627 57.35203957 35.23376465 56.57566833 C33.56009075 54.89990733 31.89728872 53.21377731 30.234375 51.52734375 C29.07489473 50.36226727 27.91474958 49.19785214 26.75396729 48.03407288 C23.70267213 44.97133103 20.66049375 41.89968669 17.62011719 38.82611084 C14.5152144 35.69050356 11.4017869 32.56338633 8.2890625 29.43554688 C2.18432568 23.29864898 -3.91080744 17.15232143 -10 11 C-9.05052441 9.88322508 -8.09975103 8.76755346 -7.1484375 7.65234375 C-6.35445557 6.72023071 -6.35445557 6.72023071 -5.54443359 5.76928711 C-3.78334607 3.7518035 -1.93011408 1.85587892 0 0 Z " fill="#121212" transform="translate(306,265)"/>
<path d="M0 0 C2.43119623 1.87015094 3.64069173 3.28138345 5 6 C5.40391526 9.63523738 5.23463713 11.56005537 3.5 14.8125 C0.58285166 17.36500479 -1.23064927 17.94149193 -5.03125 18.2109375 C-8.22582498 17.86866161 -9.85616798 16.27376123 -12 14 C-13.56935594 10.86128812 -13.35201103 8.46144178 -13 5 C-9.28222104 -0.46048784 -6.17499257 -0.8821418 0 0 Z " fill="#232323" transform="translate(255,291)"/>
<path d="M0 0 C2.50031654 3.75047482 2.53603554 5.55856266 2 10 C-0.25668676 12.96593118 -1.98884076 14.58516544 -5.4375 16 C-8.99533772 16 -11.03125551 14.9131909 -14 13 C-16.17222379 10.35555365 -15.99893321 8.97012982 -15.875 5.5 C-14.91861941 1.67447763 -14.12925566 0.32458992 -11 -2 C-6.95998462 -4.08966313 -3.76746509 -1.95350042 0 0 Z " fill="#1F1F1F" transform="translate(298,253)"/>
<path d="M0 0 C1.32 0.33 2.64 0.66 4 1 C0.535 3.97 0.535 3.97 -3 7 C2.10540868 13.1772478 7.68059409 18.80982034 13.359375 24.45703125 C14.35513938 25.45092613 15.35067994 26.4450453 16.3460083 27.43937683 C18.94702271 30.03660264 21.55102598 32.63081092 24.15570068 35.22436523 C26.8126604 37.8710515 29.46675477 40.52060776 32.12109375 43.16992188 C36.7756491 47.81494331 41.4326656 52.45748239 46.0914917 57.09822083 C47.39550361 58.39763498 48.69828494 59.69828494 50 61 C45.73088423 60.50359753 43.71765476 58.07967652 40.77246094 55.11303711 C40.01080627 54.35203957 40.01080627 54.35203957 39.23376465 53.57566833 C37.56009075 51.89990733 35.89728872 50.21377731 34.234375 48.52734375 C33.07489473 47.36226727 31.91474958 46.19785214 30.75396729 45.03407288 C27.70267213 41.97133103 24.66049375 38.89968669 21.62011719 35.82611084 C18.5152144 32.69050356 15.4017869 29.56338633 12.2890625 26.43554688 C6.18432568 20.29864898 0.08919256 14.15232143 -6 8 C-4.42003387 4.67927472 -2.92110579 2.31970165 0 0 Z " fill="#B4B4B4" transform="translate(242,328)"/>
<path d="M0 0 C0.33 0.99 0.66 1.98 1 3 C-0.32 4.32 -1.64 5.64 -3 7 C-1.4542374 10.67963772 0.7753259 13.02301787 3.58569336 15.82861328 C4.04933792 16.29415619 4.51298248 16.7596991 4.99067688 17.23934937 C6.51889519 18.77126123 8.05417549 20.29587181 9.58984375 21.8203125 C10.65633504 22.88561109 11.72245628 23.95128026 12.78822327 25.01730347 C15.02036739 27.24788518 17.25582582 29.4750721 19.49389648 31.69970703 C22.36175324 34.5505641 25.22297309 37.40796977 28.08196163 40.26771736 C30.28211745 42.4676012 32.4848704 44.66486862 34.68850899 46.86126328 C35.74445857 47.91403236 36.79980505 48.96740671 37.85453606 50.02139664 C39.32883226 51.49352332 40.80637566 52.96230943 42.28491211 54.43017578 C43.12493271 55.26638458 43.96495331 56.10259338 44.83042908 56.96414185 C47.0256226 59.13614368 47.0256226 59.13614368 50 61 C49.01 61.495 49.01 61.495 48 62 C41.41692771 56.42367362 35.24983472 50.46179372 29.12109375 44.39453125 C28.61968431 43.89844549 28.11827488 43.40235973 27.60167122 42.89124107 C24.96071143 40.27675882 22.32326412 37.65878604 19.68823242 35.03833008 C17.51180631 32.87535439 15.32828971 30.7199271 13.13842773 28.57055664 C10.4792132 25.96047525 7.83231216 23.33850155 5.19398689 20.70731163 C4.18984131 19.70988926 3.18143741 18.71673507 2.1687603 17.72797585 C0.76164892 16.35229138 -0.62854886 14.9593702 -2.01782227 13.56567383 C-2.8130983 12.77848465 -3.60837433 11.99129547 -4.42774963 11.18025208 C-6 9 -6 9 -5.90904236 6.88652039 C-4.52297235 4.01003251 -2.32281758 2.1441393 0 0 Z " fill="#B5B5B5" transform="translate(195,129)"/>
<path d="M0 0 C0.66 0.99 1.32 1.98 2 3 C0.02 4.65 -1.96 6.3 -4 8 C-3.45773019 11.79588866 -1.79872437 13.47211993 1 16 C0.67 16.66 0.34 17.32 0 18 C-1.98 16.02 -3.96 14.04 -6 12 C-9.21524305 13.40844718 -11.32183868 15.10344786 -13.75 17.625 C-14.67039062 18.57246094 -14.67039062 18.57246094 -15.609375 19.5390625 C-16.06828125 20.02117187 -16.5271875 20.50328125 -17 21 C-17 18 -17 18 -15.27734375 16.01953125 C-14.50519531 15.29121094 -13.73304688 14.56289062 -12.9375 13.8125 C-9.19274013 10.19788976 -5.69848172 6.48156201 -2.3125 2.53125 C-1.56874537 1.66353626 -0.8081145 0.8081145 0 0 Z " fill="#787878" transform="translate(278,119)"/>
<path d="M0 0 C3.03882334 1.77554817 5.6288106 3.37921171 8 6 C7.67 6.66 7.34 7.32 7 8 C5.02 6.35 3.04 4.7 1 3 C0.16855469 3.83144531 0.16855469 3.83144531 -0.6796875 4.6796875 C-3.453125 7.453125 -6.2265625 10.2265625 -9 13 C-9 9 -9 9 -7.03125 6.640625 C-5.77828125 5.45726562 -5.77828125 5.45726562 -4.5 4.25 C-3.6646875 3.45078125 -2.829375 2.6515625 -1.96875 1.828125 C-0.99421875 0.92320312 -0.99421875 0.92320312 0 0 Z " fill="#787878" transform="translate(328,310)"/>
<path d="M0 0 C0.99 0.33 1.98 0.66 3 1 C-2 6 -2 6 -4.25 8.0625 C-6.0851527 10.0942762 -6.61776714 11.32437 -7 14 C-7.99 12.68 -8.98 11.36 -10 10 C-6.7 6.7 -3.4 3.4 0 0 Z " fill="#626262" transform="translate(404,275)"/>
<path d="M0 0 C0.99 0.33 1.98 0.66 3 1 C-0.17222483 4.26285983 -3.42010308 7.19413485 -7 10 C-7.66 10.66 -8.32 11.32 -9 12 C-9 9 -9 9 -7.03125 6.73828125 C-5.77828125 5.53751953 -5.77828125 5.53751953 -4.5 4.3125 C-3.6646875 3.50425781 -2.829375 2.69601562 -1.96875 1.86328125 C-1.3190625 1.24839844 -0.669375 0.63351562 0 0 Z " fill="#666666" transform="translate(306,265)"/>
<path d="M0 0 C0.66 0 1.32 0 2 0 C0.63491499 3.11728368 -0.86919698 5.08663738 -3.4375 7.3125 C-4.03433594 7.84488281 -4.63117188 8.37726563 -5.24609375 8.92578125 C-5.82488281 9.28027344 -6.40367188 9.63476562 -7 10 C-7.99 9.67 -8.98 9.34 -10 9 C-9 7 -9 7 -7.25 6.1875 C-4.75264481 5.0110378 -4.75264481 5.0110378 -2.375 2.375 C-1.59125 1.59125 -0.8075 0.8075 0 0 Z " fill="#5D5D5D" transform="translate(97,257)"/>
<path d="M0 0 C3.45101522 4.24740335 6.73279209 8.61105071 10 13 C6.33213607 11.49650623 4.31089607 9.36271208 1.75 6.375 C1.04359375 5.55773437 0.3371875 4.74046875 -0.390625 3.8984375 C-0.92171875 3.27195312 -1.4528125 2.64546875 -2 2 C-1.34 1.34 -0.68 0.68 0 0 Z " fill="#B6B6B6" transform="translate(257,314)"/>
<path d="M0 0 C0.66 0.33 1.32 0.66 2 1 C0.90033225 2.29549899 -0.20491801 3.58626071 -1.3125 4.875 C-1.92738281 5.59429687 -2.54226563 6.31359375 -3.17578125 7.0546875 C-5 9 -5 9 -8 11 C-7.43040847 7.37386801 -6.07625466 5.74482259 -3.4375 3.25 C-2.79683594 2.63640625 -2.15617187 2.0228125 -1.49609375 1.390625 C-1.00238281 0.93171875 -0.50867188 0.4728125 0 0 Z " fill="#575757" transform="translate(266,305)"/>
<path d="M0 0 C0 0.66 0 1.32 0 2 C-1.63604196 3.37073786 -3.30678061 4.70055256 -5 6 C-6.0173873 6.98230498 -7.02596117 7.97469597 -8 9 C-8 5 -8 5 -5.6875 2.25 C-3 0 -3 0 0 0 Z " fill="#616161" transform="translate(319,254)"/>
<path d="M0 0 C0.33 0.99 0.66 1.98 1 3 C-1.3125 6.1875 -1.3125 6.1875 -4 9 C-4.66 9 -5.32 9 -6 9 C-5.52797514 4.75177626 -3.03344482 2.80010291 0 0 Z " fill="#777777" transform="translate(195,129)"/>
<path d="M0 0 C0.99 0.33 1.98 0.66 3 1 C-1.5 5.875 -1.5 5.875 -6 7 C-4.02 4.69 -2.04 2.38 0 0 Z " fill="#777777" transform="translate(365,205)"/>
<path d="M0 0 C0.99 0.33 1.98 0.66 3 1 C0.69 3.31 -1.62 5.62 -4 8 C-4 4.09161134 -2.49432124 2.88405893 0 0 Z " fill="#676767" transform="translate(98,225)"/>
<path d="M0 0 C0.99 0.33 1.98 0.66 3 1 C0.69 3.31 -1.62 5.62 -4 8 C-4 4.09161134 -2.49432124 2.88405893 0 0 Z " fill="#707070" transform="translate(125,198)"/>
<path d="M0 0 C1.32 0.33 2.64 0.66 4 1 C1.69 2.65 -0.62 4.3 -3 6 C-2 2 -2 2 0 0 Z " fill="#6A6A6A" transform="translate(242,328)"/>
<path d="M0 0 C2.125 0.9375 2.125 0.9375 4 2 C3.4225 2.12375 2.845 2.2475 2.25 2.375 C-0.02335767 3.00648824 -1.9253529 3.88858191 -4 5 C-2.25 1.125 -2.25 1.125 0 0 Z " fill="#797979" transform="translate(207,117)"/>
</svg>
