<?xml version="1.0" encoding="UTF-8"?>
<svg version="1.1" xmlns="http://www.w3.org/2000/svg" width="500" height="500">
<path d="M0 0 C0.66178253 -0.00175232 1.32356506 -0.00350464 2.00540161 -0.00531006 C4.20284615 -0.00972764 6.40021083 -0.00679094 8.59765625 -0.00341797 C10.11840836 -0.00409104 11.63916037 -0.00506108 13.15991211 -0.00631714 C16.35108461 -0.00779398 19.54222917 -0.00563999 22.73339844 -0.00097656 C26.83280155 0.00472073 30.93213921 0.00144165 35.03153992 -0.00454903 C38.17297869 -0.008155 41.31440183 -0.00701589 44.45584106 -0.00442123 C45.96778369 -0.00375207 47.47972771 -0.00458003 48.9916687 -0.00690079 C51.10125512 -0.00942792 53.21073412 -0.00558591 55.3203125 0 C56.52308838 0.00079559 57.72586426 0.00159119 58.96508789 0.00241089 C61.66015625 0.12939453 61.66015625 0.12939453 62.66015625 1.12939453 C62.76909811 3.10333623 62.80705951 5.08120745 62.81837463 7.05812073 C62.83305786 8.99123108 62.83305786 8.99123108 62.84803772 10.96339417 C62.85394269 12.40487634 62.85975309 13.8463589 62.86547852 15.2878418 C62.87505157 16.79536206 62.8850613 18.30287961 62.89547729 19.81039429 C62.92259456 23.91555873 62.94356706 28.02073474 62.96347928 32.12593961 C62.98529691 36.41145025 63.01270619 40.69692494 63.03953552 44.98240662 C63.0895197 53.10323497 63.13443721 61.22408323 63.17755789 69.34495062 C63.22688144 78.58786881 63.28181762 87.83075093 63.33723748 97.07363427 C63.45114538 116.09218756 63.55796514 135.11077486 63.66015625 154.12939453 C64.46495564 153.32182976 64.46495564 153.32182976 65.2860136 152.49795055 C78.34225776 139.39753493 91.40403651 126.30266136 104.47199535 113.21393108 C110.79142989 106.88418462 117.10897855 100.55257717 123.42211914 94.21655273 C128.9247455 88.69399 134.43088015 83.17495359 139.94125348 77.66012031 C142.85873541 74.74003143 145.7744321 71.81820891 148.68593407 68.8921566 C151.42711974 66.13738319 154.17297672 63.38735387 156.92246628 60.64086914 C157.92997419 59.6328116 158.93577299 58.6230425 159.93971062 57.61142921 C161.31271724 56.22844313 162.69254302 54.85223703 164.07267761 53.47636414 C164.84237475 52.70482341 165.6120719 51.93328268 166.40509319 51.13836193 C168.66015625 49.12939453 168.66015625 49.12939453 173.66015625 46.12939453 C189.50015625 61.96939453 205.34015625 77.80939453 221.66015625 94.12939453 C219.60568372 98.23833959 217.16729408 100.89790401 213.96044922 104.07202148 C213.3780397 104.65632935 212.79563019 105.24063721 212.1955719 105.84265137 C210.26934718 107.7725793 208.33601542 109.69521152 206.40234375 111.61767578 C205.05636724 112.96245934 203.71076111 114.3076137 202.36550903 115.65312195 C199.54232841 118.4747381 196.71582048 121.2929635 193.88671875 124.10864258 C190.27729482 127.70115034 186.674414 131.30013105 183.07382011 134.9014864 C180.29270679 137.68232633 177.50898299 140.46054071 174.72439957 143.2379055 C173.39627367 144.56286861 172.0687355 145.88842113 170.74181747 147.21459389 C158.16219888 159.77942641 158.16219888 159.77942641 152.23724365 164.75332642 C149.26624405 167.34563539 146.69332784 170.28160128 144.03515625 173.19189453 C134.15322196 183.73754083 123.87933629 193.91021449 113.66015625 204.12939453 C189.89015625 204.62439453 189.89015625 204.62439453 267.66015625 205.12939453 C267.66015625 228.22939453 267.66015625 251.32939453 267.66015625 275.12939453 C216.84015625 275.45939453 166.02015625 275.78939453 113.66015625 276.12939453 C120.60790062 283.70875202 127.53942161 291.15233186 134.81323242 298.39599609 C135.77072318 299.35320361 136.72799148 300.31063368 137.68505859 301.26826477 C140.2420109 303.82549971 142.80199682 306.37967677 145.36261153 308.93324375 C148.05364878 311.61795709 150.7417847 314.30557253 153.43025208 316.99285889 C158.50298175 322.06250155 163.57825107 327.12959356 168.65447742 332.19573474 C174.4413918 337.97140551 180.22540897 343.74997408 186.00920522 349.52876711 C197.88967386 361.39883103 209.77370842 373.265318 221.66015625 385.12939453 C220.75388841 386.42837843 219.83466088 387.71832621 218.91015625 389.00439453 C218.3996875 389.72369141 217.88921875 390.44298828 217.36328125 391.18408203 C215.58512078 393.21510018 214.13314018 394.10794465 211.66015625 395.12939453 C211.66015625 395.78939453 211.66015625 396.44939453 211.66015625 397.12939453 C210.16833496 398.60121155 210.16833496 398.60121155 208.11914062 400.30151367 C203.98697477 403.81715775 200.13498001 407.52486377 196.31640625 411.37548828 C195.66184448 412.031465 195.00728271 412.68744171 194.33288574 413.36329651 C192.27291802 415.42879598 190.21648259 417.49777048 188.16015625 419.56689453 C186.75153575 420.98053887 185.34268358 422.39395239 183.93359375 423.80712891 C180.50643492 427.24522602 177.08243606 430.6864411 173.66015625 434.12939453 C170.12683869 432.62130581 167.85763459 430.57378633 165.15496826 427.86471558 C163.80886978 426.52274109 163.80886978 426.52274109 162.43557739 425.15365601 C161.44882051 424.1598214 160.46215991 423.16589119 159.47558594 422.171875 C158.43110389 421.1268287 157.38618103 420.08222282 156.34085083 419.0380249 C153.50610379 416.2038518 150.6775665 413.36355354 147.8500967 410.52212286 C144.89348959 407.55301523 141.93121966 404.58956849 138.96954346 401.6255188 C133.36285317 396.01261176 127.76128073 390.39462583 122.16152501 384.77480137 C115.78581537 378.37673884 109.40442737 371.98435282 103.02255392 365.59243941 C89.89542233 352.4444014 76.77544556 339.28924482 63.66015625 326.12939453 C63.65592431 326.91699378 63.65169237 327.70459303 63.64733219 328.51605892 C63.5441704 347.65199089 63.43555468 366.78788472 63.32081699 385.92375088 C63.26546393 395.17758846 63.21197857 404.43142989 63.1628418 413.68530273 C63.12002542 421.74798072 63.07375396 429.81063008 63.0232777 437.8732639 C62.99665617 442.14506293 62.97180268 446.41685621 62.95108223 450.68868828 C62.93154776 454.70478192 62.90741376 458.72082096 62.87966537 462.736866 C62.87027797 464.21515096 62.86260881 465.69344792 62.85673714 467.17175102 C62.84850464 469.18141395 62.83363902 471.19104652 62.81837463 473.20066833 C62.80869581 474.89169756 62.80869581 474.89169756 62.79882145 476.616889 C62.66015625 479.12939453 62.66015625 479.12939453 61.66015625 480.12939453 C59.54877724 480.22887646 57.43403339 480.25739091 55.3203125 480.25878906 C54.3276387 480.26141754 54.3276387 480.26141754 53.31491089 480.26409912 C51.11746635 480.2685167 48.92010167 480.26558 46.72265625 480.26220703 C45.20190414 480.2628801 43.68115213 480.26385015 42.16040039 480.2651062 C38.96922789 480.26658305 35.77808333 480.26442905 32.58691406 480.25976562 C28.48751095 480.25406834 24.38817329 480.25734741 20.28877258 480.26333809 C17.14733381 480.26694407 14.00591067 480.26580495 10.86447144 480.2632103 C9.35252881 480.26254113 7.84058479 480.2633691 6.3286438 480.26568985 C4.21905738 480.26821698 2.10957838 480.26437497 0 480.25878906 C-1.20277588 480.25799347 -2.40555176 480.25719788 -3.64477539 480.25637817 C-6.33984375 480.12939453 -6.33984375 480.12939453 -7.33984375 479.12939453 C-7.44878561 477.15545283 -7.48674701 475.17758162 -7.49806213 473.20066833 C-7.51274536 471.26755798 -7.51274536 471.26755798 -7.52772522 469.2953949 C-7.53363019 467.85391272 -7.53944059 466.41243016 -7.54516602 464.97094727 C-7.55473907 463.463427 -7.5647488 461.95590945 -7.57516479 460.44839478 C-7.60228206 456.34323034 -7.62325456 452.23805432 -7.64316678 448.13284945 C-7.66498441 443.84733881 -7.69239369 439.56186412 -7.71922302 435.27638245 C-7.7692072 427.15555409 -7.81412471 419.03470583 -7.85724539 410.91383845 C-7.91578386 399.94410367 -7.98210136 388.97441615 -8.04799557 378.00472355 C-8.15165978 360.71297901 -8.24488936 343.42119417 -8.33984375 326.12939453 C-43.97984375 361.76939453 -79.61984375 397.40939453 -116.33984375 434.12939453 C-120.14633862 432.2261471 -122.06601831 430.64648275 -125.01660156 427.6796875 C-125.93725403 426.75888397 -126.85790649 425.83808044 -127.80645752 424.88937378 C-128.80206905 423.88354988 -129.79757023 422.87761673 -130.79296875 421.87158203 C-131.81814568 420.84267304 -132.8437665 419.81420616 -133.86981201 418.78616333 C-136.56377539 416.08457872 -139.25167743 413.37704112 -141.93835449 410.66821289 C-144.68312679 407.90294965 -147.43359847 405.1433682 -150.18359375 402.38330078 C-155.57459948 396.97087179 -160.95921339 391.55214015 -166.33984375 386.12939453 C-161.38366315 380.14715889 -156.01729096 374.67793566 -150.51074219 369.20263672 C-149.52766943 368.22148664 -148.54482669 367.24010604 -147.56219482 366.2585144 C-145.45856524 364.15802791 -143.35339698 362.05910056 -141.24700165 359.96138763 C-137.91631131 356.64428802 -134.58949987 353.32331613 -131.26324463 350.00177002 C-124.20841157 342.95800192 -117.14933908 335.91848947 -110.08984375 328.87939453 C-102.45354672 321.26513336 -94.81799347 313.65013487 -87.18729424 306.03026319 C-83.88005524 302.72800653 -80.57039355 299.42820319 -77.25885725 296.13025618 C-75.20315502 294.08200495 -73.14951923 292.03169152 -71.09644318 289.98080826 C-69.68871277 288.57584635 -68.2784718 287.17340137 -66.86816406 285.77102661 C-66.03267029 284.93560333 -65.19717651 284.10018005 -64.33636475 283.23944092 C-63.60856686 282.51386364 -62.88076897 281.78828636 -62.1309166 281.04072189 C-60.17110466 279.05414772 -60.17110466 279.05414772 -58.33984375 276.12939453 C-109.15984375 275.79939453 -159.97984375 275.46939453 -212.33984375 275.12939453 C-212.33984375 252.02939453 -212.33984375 228.92939453 -212.33984375 205.12939453 C-161.51984375 204.79939453 -110.69984375 204.46939453 -58.33984375 204.12939453 C-62.48578214 199.09123643 -62.48578214 199.09123643 -67.06399536 194.83366394 C-71.8593723 190.73603078 -76.29620714 186.32070607 -80.75341797 181.86108398 C-81.65845566 180.95940491 -82.56349335 180.05772583 -83.49595642 179.12872314 C-85.95455919 176.67887351 -88.40998717 174.22586655 -90.86453772 171.77195764 C-92.40043749 170.23677229 -93.93704862 168.70230265 -95.47391129 167.16808128 C-100.84092091 161.81028986 -106.20537542 156.44995568 -111.56738281 151.0871582 C-116.55938465 146.09455359 -121.55696101 141.10757716 -126.55713069 136.12315398 C-130.86064428 131.83270935 -135.16030043 127.53842489 -139.45696461 123.24112099 C-142.01889063 120.67894019 -144.58234087 118.1183316 -147.14968491 115.56157875 C-150.00627231 112.71645877 -152.85480069 109.86340115 -155.70263672 107.00952148 C-156.55249649 106.16528122 -157.40235626 105.32104095 -158.27796936 104.45121765 C-159.05167374 103.67331879 -159.82537811 102.89541992 -160.62252808 102.09394836 C-161.29610792 101.42091329 -161.96968777 100.74787821 -162.66367912 100.05444813 C-164.33984375 98.12939453 -164.33984375 98.12939453 -166.33984375 94.12939453 C-150.49984375 78.28939453 -134.65984375 62.44939453 -118.33984375 46.12939453 C-114.32276775 48.8074452 -111.47730418 50.74198507 -108.21070862 54.0112915 C-107.44688873 54.7709169 -106.68306885 55.5305423 -105.89610291 56.31318665 C-105.07775467 57.13715439 -104.25940643 57.96112213 -103.41625977 58.81005859 C-102.53905273 59.68536728 -101.6618457 60.56067596 -100.75805664 61.46250916 C-98.36380051 63.8537043 -95.97408288 66.24926378 -93.58645368 68.64706516 C-91.07729525 71.16504973 -88.56282302 73.67771793 -86.04905701 76.19110107 C-81.82673071 80.41436252 -77.60828535 84.64146889 -73.39233398 88.87109375 C-68.53441653 93.74470959 -63.67131986 98.61310672 -58.80518013 103.47851205 C-53.6051877 108.67782594 -48.4090225 113.88095205 -43.21395373 119.08518505 C-41.72628623 120.57497256 -40.23791977 122.06405866 -38.74939156 123.55298615 C-35.96086329 126.34271692 -33.17662831 129.13670903 -30.39282227 131.93115234 C-29.57649826 132.74702316 -28.76017426 133.56289398 -27.91911316 134.40348816 C-24.3695764 137.97277177 -20.91972965 141.56406031 -17.64903259 145.39178467 C-14.79627848 148.71807405 -11.79189648 151.43510947 -8.33984375 154.12939453 C-8.33561181 153.34179528 -8.33137987 152.55419603 -8.32701969 151.74273014 C-8.2238579 132.60679817 -8.11524218 113.47090435 -8.00050449 94.33503819 C-7.94515143 85.08120061 -7.89166607 75.82735917 -7.8425293 66.57348633 C-7.79971292 58.51080834 -7.75344146 50.44815898 -7.7029652 42.38552517 C-7.67634367 38.11372613 -7.65149018 33.84193286 -7.63076973 29.57010078 C-7.61123526 25.55400714 -7.58710126 21.5379681 -7.55935287 17.52192307 C-7.54996547 16.04363811 -7.54229631 14.56534114 -7.53642464 13.08703804 C-7.52819214 11.07737511 -7.51332652 9.06774254 -7.49806213 7.05812073 C-7.49160958 5.93076791 -7.48515703 4.80341509 -7.47850895 3.64190006 C-7.20920943 -1.23759778 -4.24822663 0.00281005 0 0 Z " fill="#272727" transform="translate(222.33984375,9.87060546875)"/>
<path d="M0 0 C0 4.592388 -2.90670589 6.81141483 -6 10 C-7.64295195 11.36244796 -9.30824337 12.69864875 -11 14 C-13.86166082 16.71490898 -16.47446212 19.53960555 -19 22.5625 C-21.43195146 25.44227883 -24.00554608 27.69657391 -27 30 C-29.86166082 32.71490898 -32.47446212 35.53960555 -35 38.5625 C-37.43195146 41.44227883 -40.00554608 43.69657391 -43 46 C-45.86166082 48.71490898 -48.47446212 51.53960555 -51 54.5625 C-53.43195146 57.44227883 -56.00554608 59.69657391 -59 62 C-61.86166082 64.71490898 -64.47446212 67.53960555 -67 70.5625 C-69.43195146 73.44227883 -72.00554608 75.69657391 -75 78 C-78.47698763 81.29868057 -81.51975204 84.78417158 -84.47265625 88.546875 C-86.27876527 90.26521913 -87.60199529 90.48480248 -90 91 C-85.45561817 85.55076983 -80.63534863 80.49816143 -75.60791016 75.49438477 C-74.37764603 74.2639016 -74.37764603 74.2639016 -73.12252808 73.00856018 C-70.43040493 70.3171297 -67.73476475 67.62925153 -65.0390625 64.94140625 C-63.16411824 63.06832847 -61.28937215 61.19505444 -59.41488647 59.32151794 C-54.99718043 54.90690868 -50.57693357 50.49485275 -46.15574777 46.08372873 C-41.11864834 41.05784199 -36.08441902 36.02908452 -31.05041814 31.00009453 C-20.70344935 20.66355267 -10.35291534 10.33058584 0 0 Z " fill="#979797" transform="translate(376,74)"/>
<path d="M0 0 C0.66 0.33 1.32 0.66 2 1 C0.09332956 3.15549693 -1.82431955 5.29909904 -3.75 7.4375 C-4.55824219 8.35499023 -4.55824219 8.35499023 -5.3828125 9.29101562 C-5.91132813 9.87431641 -6.43984375 10.45761719 -6.984375 11.05859375 C-7.46616211 11.59798584 -7.94794922 12.13737793 -8.44433594 12.69311523 C-10.25695055 14.21585943 -11.6906441 14.59695204 -14 15 C-9.59156563 9.70987876 -4.92440206 4.81191572 0 0 Z " fill="#8F8F8F" transform="translate(391,59)"/>
<path d="M0 0 C0 3.41099168 -0.49145406 6.63088314 -1 10 C-2.32 8.68 -3.64 7.36 -5 6 C-3.35 4.02 -1.7 2.04 0 0 Z " fill="#696969" transform="translate(61,99)"/>
<path d="M0 0 C1.98 0 3.96 0 6 0 C4.35 1.98 2.7 3.96 1 6 C0.4465236 3.92446352 0 2.15634036 0 0 Z " fill="#6F6F6F" transform="translate(339,204)"/>
<path d="M0 0 C0.33 1.32 0.66 2.64 1 4 C-0.32 4.99 -1.64 5.98 -3 7 C-3.33 5.35 -3.66 3.7 -4 2 C-2.68 1.34 -1.36 0.68 0 0 Z " fill="#515151" transform="translate(213,332)"/>
<path d="M0 0 C0.66 0.33 1.32 0.66 2 1 C1.3125 2.9375 1.3125 2.9375 0 5 C-2.625 5.75 -2.625 5.75 -5 6 C-3.35 4.02 -1.7 2.04 0 0 Z " fill="#454545" transform="translate(69,382)"/>
<path d="M0 0 C0.66 0.33 1.32 0.66 2 1 C1.3125 2.9375 1.3125 2.9375 0 5 C-2.625 5.75 -2.625 5.75 -5 6 C-3.35 4.02 -1.7 2.04 0 0 Z " fill="#454545" transform="translate(77,374)"/>
<path d="M0 0 C0.66 0.33 1.32 0.66 2 1 C1.3125 2.9375 1.3125 2.9375 0 5 C-2.625 5.75 -2.625 5.75 -5 6 C-3.35 4.02 -1.7 2.04 0 0 Z " fill="#454545" transform="translate(85,366)"/>
<path d="M0 0 C0.66 0.33 1.32 0.66 2 1 C1.3125 2.9375 1.3125 2.9375 0 5 C-2.625 5.75 -2.625 5.75 -5 6 C-3.35 4.02 -1.7 2.04 0 0 Z " fill="#454545" transform="translate(93,358)"/>
<path d="M0 0 C0.66 0.33 1.32 0.66 2 1 C1.3125 2.9375 1.3125 2.9375 0 5 C-2.625 5.75 -2.625 5.75 -5 6 C-3.35 4.02 -1.7 2.04 0 0 Z " fill="#454545" transform="translate(101,350)"/>
<path d="M0 0 C0.66 0.33 1.32 0.66 2 1 C1.3125 2.9375 1.3125 2.9375 0 5 C-2.625 5.75 -2.625 5.75 -5 6 C-3.35 4.02 -1.7 2.04 0 0 Z " fill="#454545" transform="translate(109,342)"/>
<path d="M0 0 C0.66 0.33 1.32 0.66 2 1 C1.3125 2.9375 1.3125 2.9375 0 5 C-2.625 5.75 -2.625 5.75 -5 6 C-3.35 4.02 -1.7 2.04 0 0 Z " fill="#454545" transform="translate(117,334)"/>
<path d="M0 0 C0.66 0.33 1.32 0.66 2 1 C1.3125 2.9375 1.3125 2.9375 0 5 C-2.625 5.75 -2.625 5.75 -5 6 C-3.35 4.02 -1.7 2.04 0 0 Z " fill="#454545" transform="translate(125,326)"/>
<path d="M0 0 C0.66 0.33 1.32 0.66 2 1 C1.3125 2.9375 1.3125 2.9375 0 5 C-2.625 5.75 -2.625 5.75 -5 6 C-3.35 4.02 -1.7 2.04 0 0 Z " fill="#454545" transform="translate(133,318)"/>
<path d="M0 0 C0.66 0.33 1.32 0.66 2 1 C1.3125 2.9375 1.3125 2.9375 0 5 C-2.625 5.75 -2.625 5.75 -5 6 C-3.35 4.02 -1.7 2.04 0 0 Z " fill="#454545" transform="translate(141,310)"/>
<path d="M0 0 C0.66 0.33 1.32 0.66 2 1 C1.3125 2.9375 1.3125 2.9375 0 5 C-2.625 5.75 -2.625 5.75 -5 6 C-3.35 4.02 -1.7 2.04 0 0 Z " fill="#454545" transform="translate(149,302)"/>
<path d="M0 0 C0.66 0.33 1.32 0.66 2 1 C1.3125 2.9375 1.3125 2.9375 0 5 C-2.625 5.75 -2.625 5.75 -5 6 C-3.35 4.02 -1.7 2.04 0 0 Z " fill="#454545" transform="translate(157,294)"/>
<path d="M0 0 C1.98 0 3.96 0 6 0 C4.35 1.65 2.7 3.3 1 5 C0.67 3.35 0.34 1.7 0 0 Z " fill="#6D6D6D" transform="translate(347,196)"/>
<path d="M0 0 C1.98 0 3.96 0 6 0 C4.35 1.65 2.7 3.3 1 5 C0.67 3.35 0.34 1.7 0 0 Z " fill="#6D6D6D" transform="translate(355,188)"/>
<path d="M0 0 C1.98 0 3.96 0 6 0 C4.35 1.65 2.7 3.3 1 5 C0.67 3.35 0.34 1.7 0 0 Z " fill="#6D6D6D" transform="translate(379,164)"/>
<path d="M0 0 C1.98 0 3.96 0 6 0 C4.35 1.65 2.7 3.3 1 5 C0.67 3.35 0.34 1.7 0 0 Z " fill="#6D6D6D" transform="translate(387,156)"/>
<path d="M0 0 C1.98 0 3.96 0 6 0 C4.35 1.65 2.7 3.3 1 5 C0.67 3.35 0.34 1.7 0 0 Z " fill="#6D6D6D" transform="translate(395,148)"/>
<path d="M0 0 C1.98 0 3.96 0 6 0 C4.35 1.65 2.7 3.3 1 5 C0.67 3.35 0.34 1.7 0 0 Z " fill="#6D6D6D" transform="translate(403,140)"/>
<path d="M0 0 C1.98 0 3.96 0 6 0 C4.35 1.65 2.7 3.3 1 5 C0.67 3.35 0.34 1.7 0 0 Z " fill="#6D6D6D" transform="translate(411,132)"/>
<path d="M0 0 C1.98 0 3.96 0 6 0 C4.35 1.65 2.7 3.3 1 5 C0.67 3.35 0.34 1.7 0 0 Z " fill="#6D6D6D" transform="translate(419,124)"/>
<path d="M0 0 C1.98 0 3.96 0 6 0 C4.35 1.65 2.7 3.3 1 5 C0.67 3.35 0.34 1.7 0 0 Z " fill="#6D6D6D" transform="translate(427,116)"/>
<path d="M0 0 C1.98 0 3.96 0 6 0 C4.35 1.65 2.7 3.3 1 5 C0.67 3.35 0.34 1.7 0 0 Z " fill="#6D6D6D" transform="translate(435,108)"/>
</svg>
